<svg width="32" height="32" viewBox="0 0 32 32" fill="none" xmlns="http://www.w3.org/2000/svg">
<g clip-path="url(#clip0_236_245)">
<rect width="32" height="32" fill="#5E50FF"/>
<path d="M21.7941 17.5429C22.1815 17.8601 22.2419 18.4361 21.88 18.7822C20.9808 19.6426 19.8768 20.2679 18.6662 20.595C17.1625 21.0013 15.5694 20.9272 14.11 20.383C12.6506 19.8388 11.3979 18.8519 10.5272 17.5603C9.65663 16.2688 9.21172 14.7373 9.25481 13.1803C9.29791 11.6233 9.82681 10.1188 10.7675 8.87734C11.7082 7.63596 13.0136 6.71974 14.5008 6.25713C15.9881 5.79452 17.5829 5.80854 19.0618 6.29734C20.2525 6.69089 21.3201 7.37638 22.1705 8.28508C22.5126 8.65068 22.4205 9.22246 22.0161 9.51777L20.4728 10.645C20.0684 10.9403 19.5065 10.8409 19.1228 10.5192C18.762 10.2166 18.3452 9.98321 17.8929 9.83372C17.1518 9.58876 16.3525 9.58172 15.6071 9.81356C14.8617 10.0454 14.2075 10.5046 13.736 11.1268C13.2646 11.749 12.9995 12.503 12.9779 13.2833C12.9563 14.0637 13.1793 14.8312 13.6156 15.4785C14.0519 16.1258 14.6798 16.6204 15.4112 16.8932C16.1427 17.1659 16.9411 17.203 17.6947 16.9994C18.1545 16.8752 18.5836 16.6651 18.9605 16.383C19.3615 16.0831 19.928 16.0148 20.3154 16.3321L21.7941 17.5429Z" fill="white"/>
<path fill-rule="evenodd" clip-rule="evenodd" d="M0 22.9866H9.81093C10.0504 22.9866 10.253 23.1444 10.3204 23.3617C10.8748 24.2535 11.7608 24.7743 12.7581 25.316C13.7951 25.8793 14.989 26.1779 16.207 26.1787C17.4251 26.1796 18.6195 25.8825 19.6575 25.3207C20.6385 24.7896 21.5407 24.2238 22.1013 23.3546C22.1709 23.141 22.3717 22.9866 22.6085 22.9866H32V24.7999H23.4044C22.7171 25.6679 21.8323 26.4056 20.8016 26.9635C19.4189 27.712 17.8278 28.1076 16.2053 28.1066C14.5828 28.1055 12.9925 27.7076 11.6111 26.9573C10.5852 26.4001 9.70448 25.6647 9.01979 24.7999H0V22.9866Z" fill="white"/>
</g>
<defs>
<clipPath id="clip0_236_245">
<rect width="32" height="32" fill="white"/>
</clipPath>
</defs>
</svg>
