<svg width="33" height="32" viewBox="0 0 33 32" fill="none" xmlns="http://www.w3.org/2000/svg">
<path d="M17.209 16C17.209 13.422 19.247 11.334 21.759 11.334C24.273 11.334 26.309 13.42 26.309 16C26.309 18.578 24.273 20.666 21.759 20.666C19.249 20.666 17.209 18.58 17.209 16Z" fill="#1ABCFE"/>
<path d="M8.10938 25.334C8.10938 22.756 10.1474 20.666 12.6594 20.666H17.2094V25.334C17.2094 27.91 15.1714 30 12.6594 30C10.1474 30 8.10938 27.91 8.10938 25.334Z" fill="#0ACF83"/>
<path d="M17.209 2V11.334H21.759C24.273 11.334 26.309 9.244 26.309 6.666C26.309 4.09 24.273 2 21.759 2H17.209Z" fill="#FF7262"/>
<path d="M8.10938 6.666C8.10938 9.244 10.1474 11.334 12.6594 11.334H17.2094V2H12.6594C10.1474 2 8.10938 4.09 8.10938 6.666Z" fill="#F24E1E"/>
<path d="M8.10938 16C8.10938 18.578 10.1474 20.666 12.6594 20.666H17.2094V11.334H12.6594C10.1474 11.334 8.10938 13.42 8.10938 16Z" fill="#A259FF"/>
</svg>
