<svg width="24" height="32" viewBox="0 0 24 32" fill="none" xmlns="http://www.w3.org/2000/svg">
<g clip-path="url(#clip0_310_61)">
<path d="M0 25.7984L0.193511 25.5275L9.34534 8.16218L9.36466 7.97833L5.33045 0.400392C4.99229 -0.234377 4.04068 -0.0738614 3.92984 0.636744L0 25.7984Z" fill="#FFC24A"/>
<path d="M0.113281 25.5919L0.259577 25.3065L9.3156 8.12311L5.29133 0.514367C4.9569 -0.113748 4.10757 0.0464027 3.99782 0.749534L0.113281 25.5919Z" fill="#FFA712"/>
<path d="M0.113281 25.5919L0.259577 25.3065L9.3156 8.12311L5.29133 0.514367C4.9569 -0.113748 4.10757 0.0464027 3.99782 0.749534L0.113281 25.5919Z" fill="#F0AA40"/>
<path d="M12.3061 13.7102L15.3099 10.6339L12.3051 4.89784C12.0199 4.35486 11.2236 4.35322 10.9414 4.89784L9.33594 7.9593V8.21999L12.306 13.7102H12.3061Z" fill="#F4BD62"/>
<path d="M12.2527 13.5822L15.173 10.5914L12.2527 5.03061C11.9754 4.50276 11.3017 4.44743 11.0274 4.97683L9.41354 8.08587L9.36523 8.24483L12.2527 13.5822V13.5822Z" fill="#FFA50E"/>
<path d="M12.2527 13.5822L15.173 10.5914L12.2527 5.03061C11.9754 4.50276 11.3017 4.44743 11.0274 4.97683L9.41354 8.08587L9.36523 8.24483L12.2527 13.5822V13.5822Z" fill="#F0AA40"/>
<path d="M0 25.7985L0.0876863 25.7103L0.406347 25.5809L12.117 13.9137L12.2654 13.5098L9.34406 7.94287L0 25.7985Z" fill="#F6820C"/>
<path d="M12.6809 31.6824L23.2793 25.7716L20.2528 7.13187C20.1581 6.54869 19.4427 6.31818 19.0252 6.73628L0 25.7984L10.5377 31.6819C10.8652 31.8648 11.2341 31.9608 11.6092 31.9609C11.9843 31.961 12.3533 31.8651 12.6809 31.6824Z" fill="#FDE068"/>
<path d="M23.184 25.722L20.1804 7.22385C20.0865 6.64504 19.4915 6.40559 19.0772 6.8206L0.117188 25.7621L10.5392 31.5873C10.8642 31.7688 11.2303 31.8641 11.6026 31.8642C11.9748 31.8643 12.3409 31.7692 12.6661 31.5879L23.1841 25.7219L23.184 25.722Z" fill="#FCCA3F"/>
<path d="M12.6807 31.5084C12.3531 31.6911 11.9842 31.787 11.6091 31.7869C11.234 31.7868 10.8651 31.6908 10.5376 31.5079L0.0847695 25.709L0 25.7986L10.5376 31.6821C10.8651 31.865 11.234 31.961 11.6091 31.9611C11.9843 31.9612 12.3532 31.8653 12.6808 31.6826L23.2793 25.7718L23.2533 25.6121L12.6808 31.5085L12.6807 31.5084Z" fill="#EEAB37"/>
</g>
<defs>
<clipPath id="clip0_310_61">
<rect width="23.3344" height="32" fill="white"/>
</clipPath>
</defs>
</svg>
