<svg width="33" height="32" viewBox="0 0 33 32" fill="none" xmlns="http://www.w3.org/2000/svg">
<g clip-path="url(#clip0_310_113)">
<path d="M16.1923 31.1863C24.5796 31.1863 31.3788 24.3871 31.3788 15.9999C31.3788 7.61268 24.5796 0.813477 16.1923 0.813477C7.80506 0.813477 1.00586 7.61268 1.00586 15.9999C1.00586 24.3871 7.80506 31.1863 16.1923 31.1863Z" fill="white"/>
<path d="M16.1914 0C7.35485 0 0.191406 7.16344 0.191406 16C0.191406 24.8366 7.35485 32 16.1914 32C25.028 32 32.1914 24.8366 32.1914 16C32.1914 7.16344 25.028 0 16.1914 0ZM16.1914 1.62712C24.1293 1.62712 30.5643 8.06208 30.5643 16C30.5643 23.9379 24.1293 30.3729 16.1914 30.3729C8.25349 30.3729 1.81853 23.9379 1.81853 16C1.81853 8.06208 8.25349 1.62712 16.1914 1.62712Z" fill="#4000BF"/>
<path d="M16.3722 4.61011C22.6627 4.61011 27.7621 9.70951 27.7621 15.9999C27.7621 22.2903 22.6627 27.3897 16.3722 27.3897C10.0818 27.3897 4.98242 22.2903 4.98242 15.9999C4.98242 14.4626 5.287 12.9964 5.83911 11.6583C6.64526 12.7561 7.9453 13.4688 9.4118 13.4688C11.8581 13.4688 13.8411 11.4857 13.8411 9.03949C13.8411 7.57299 13.1285 6.27295 12.0306 5.46681C13.3687 4.91469 14.8349 4.61011 16.3722 4.61011Z" fill="url(#paint0_linear_310_113)"/>
</g>
<defs>
<linearGradient id="paint0_linear_310_113" x1="1143.96" y1="2282.57" x2="1143.96" y2="4.61011" gradientUnits="userSpaceOnUse">
<stop stop-color="#7400E1"/>
<stop offset="1" stop-color="#4000BF"/>
</linearGradient>
<clipPath id="clip0_310_113">
<rect width="32" height="32" fill="white" transform="translate(0.191406)"/>
</clipPath>
</defs>
</svg>
