<svg width="32" height="32" viewBox="0 0 32 32" fill="none" xmlns="http://www.w3.org/2000/svg">
<rect width="32" height="32" fill="#503629"/>
<path fill-rule="evenodd" clip-rule="evenodd" d="M8.28248 11.7811H7.06795V17.6475C7.06795 19.8685 6.01702 20.5229 4.03252 20.5229C2.37343 20.5229 2 19.8916 2 19.0505C2 18.8638 2.09247 18.2557 2.67751 18.2557C3.26076 18.2557 3.307 18.654 3.307 19.3084C3.307 19.3546 3.307 19.4014 3.307 19.4489C3.35501 19.8685 3.72844 20.1726 4.1481 20.1264C5.27016 20.1264 5.78407 19.6124 5.78407 17.8111V11.7811H4.61578V11.4771H8.25937L8.28248 11.7811ZM17.5773 14.0021C17.5773 15.4745 16.8055 16.5735 14.0511 16.5735H13.0926V18.9581C13.0695 19.1448 13.1157 19.3315 13.1868 19.5182C13.2562 19.7049 13.4198 19.8454 13.6296 19.9165C13.8643 19.9859 14.0973 20.009 14.3534 20.009V20.29H10.5479V20.009C10.7809 20.009 11.0138 19.9628 11.2255 19.8934C11.4122 19.8454 11.5758 19.6818 11.6682 19.4951C11.7625 19.2141 11.7856 18.9349 11.7625 18.654V11.7811H10.7115V11.4771H14.3071C17.0865 11.4771 17.5773 12.528 17.5773 14.0021ZM13.8395 16.2694C15.5217 16.2694 16.3628 15.4976 16.3628 14.0946C16.3628 12.6916 15.8489 11.8274 13.7239 11.8274H13.0695V16.2231H13.7932L13.8395 16.2694ZM28.9491 19.4008C29.0202 19.5876 29.1607 19.7512 29.3474 19.8454C29.5572 19.9147 29.7902 19.9628 30 19.9628V20.2419H26.5218V19.9628C26.7316 19.9628 26.9414 19.9147 27.1513 19.8454C27.3149 19.7743 27.4554 19.6356 27.5247 19.4471C27.5721 19.2372 27.5958 19.0268 27.5958 18.8158V12.7627H27.5247L24.4662 20.29H24.1621C24.1621 20.1957 20.9168 12.6916 20.9168 12.6916H20.7763V18.5829L20.7994 19.2141C20.8226 19.3777 20.8688 19.5182 20.963 19.6587C21.0804 19.7992 21.2191 19.8916 21.4058 19.9396C21.5463 19.9859 21.6868 20.009 21.8504 20.009V20.29H19.352V20.009C19.5156 20.009 19.7023 20.009 19.8659 19.9628C20.0295 19.9147 20.1682 19.8223 20.2624 19.6818C20.3318 19.5413 20.4029 19.4008 20.4029 19.2372V11.7793H19.304V11.5002H21.8273C21.8504 11.5695 24.6991 18.2094 24.6991 18.2094C24.7222 18.2325 24.7453 18.2557 24.7702 18.2557C24.7933 18.2557 24.8165 18.2325 24.8165 18.2094L27.5727 11.5002H29.8382V11.7793H28.8797V18.8638C28.8566 19.0736 28.8797 19.2835 28.9491 19.472V19.4008Z" fill="white"/>
</svg>
