<svg width="32" height="32" viewBox="0 0 32 32" fill="none" xmlns="http://www.w3.org/2000/svg">
<g clip-path="url(#clip0_310_51)">
<mask id="mask0_310_51" style="mask-type:luminance" maskUnits="userSpaceOnUse" x="0" y="0" width="32" height="32">
<path d="M31.1996 0H0.90625V32H31.1996V0Z" fill="white"/>
</mask>
<g mask="url(#mask0_310_51)">
<path d="M23.1678 13.5764C23.6627 16.3831 22.107 18.3484 19.2057 18.86C16.9892 19.2508 15.1256 18.5879 14.2491 17.0358C14.1436 16.8491 14.123 16.6262 14.1922 16.4231C14.2614 16.2201 14.4138 16.0555 14.6115 15.9722L15.9089 15.4256C16.2176 15.2956 16.5743 15.3854 16.7851 15.6457C17.1727 16.1245 17.8024 16.392 18.6308 16.246C19.8134 16.0374 20.4556 15.16 20.2415 13.9459L19.4575 9.49922L14.9155 10.3001C14.5065 10.3722 14.1165 10.0991 14.0444 9.69013L13.858 8.63268C13.7858 8.2237 14.0589 7.83369 14.4679 7.76158L21.1705 6.57971C21.5795 6.50761 21.9695 6.78069 22.0417 7.18967L23.1678 13.5764ZM28.851 4.63409C28.3134 1.58461 25.4054 -0.45159 22.3558 0.0861171L10.2868 2.21421C8.82241 2.47243 7.52056 3.30182 6.66762 4.51987L2.055 11.1074C1.20209 12.3255 0.867998 13.8325 1.12623 15.2969L3.2543 27.366C3.79201 30.4154 6.7 32.4516 9.74951 31.9138L21.8185 29.7858C23.283 29.5277 24.5847 28.6982 25.4376 27.4801L30.0503 20.8926C30.9032 19.6745 31.2373 18.1675 30.9792 16.7031L28.851 4.63409ZM28.7844 17.171C29.107 19.0007 27.8852 20.7455 26.0555 21.0681L13.908 23.21C12.0784 23.5326 10.3336 22.311 10.0109 20.4813L7.86898 8.3338C7.54636 6.50411 8.7681 4.75932 10.5978 4.43669L22.7454 2.29474C24.5749 1.97213 26.3198 3.19383 26.6423 5.02353L28.7844 17.171Z" fill="#6968F4"/>
</g>
</g>
<defs>
<clipPath id="clip0_310_51">
<rect width="30.2933" height="32" fill="white" transform="translate(0.90625)"/>
</clipPath>
</defs>
</svg>
