<svg width="142" height="150" viewBox="0 0 142 150" fill="none" xmlns="http://www.w3.org/2000/svg">
<g clip-path="url(#clip0_309_13)">
<path d="M104.352 63.6393C106.672 76.7956 99.3794 86.0082 85.7799 88.4062C75.3901 90.2382 66.6543 87.1306 62.5456 79.8555C62.0511 78.98 61.9546 77.9352 62.279 76.9834C62.6032 76.0317 63.3178 75.2602 64.2443 74.8698L70.3262 72.3075C71.7732 71.6979 73.4451 72.1189 74.4331 73.3393C76.2499 75.5836 79.2018 76.8376 83.0849 76.1529C88.6283 75.1755 91.6387 71.0624 90.6352 65.3716L86.9599 44.5276L65.6695 48.2817C63.7524 48.6197 61.9242 47.3396 61.5862 45.4225L60.7122 40.4657C60.3742 38.5486 61.6542 36.7204 63.5713 36.3824L94.99 30.8424C96.9071 30.5044 98.7353 31.7845 99.0733 33.7016L104.352 63.6393ZM130.992 21.7223C128.472 7.42785 114.841 -2.11683 100.546 0.403674L43.9726 10.3791C37.1081 11.5895 31.0057 15.4773 27.0075 21.1869L5.38588 52.0659C1.38783 57.7757 -0.178209 64.8398 1.03224 71.7042L11.0076 128.278C13.5281 142.572 27.1593 152.117 41.4539 149.596L98.0273 139.621C104.892 138.411 110.994 134.523 114.992 128.813L136.614 97.9341C140.612 92.2244 142.178 85.1603 140.968 78.2958L130.992 21.7223ZM130.68 80.4892C132.192 89.0659 126.465 97.2446 117.888 98.7569L60.9469 108.797C52.3704 110.309 44.1916 104.583 42.6792 96.006L32.6389 39.0647C31.1266 30.488 36.8535 22.3093 45.4301 20.797L102.372 10.7566C110.948 9.24437 119.127 14.9711 120.639 23.5478L130.68 80.4892Z" fill="#6968F4"/>
</g>
<defs>
<clipPath id="clip0_309_13">
<rect width="142" height="150" fill="white"/>
</clipPath>
</defs>
</svg>
