<svg width="32" height="32" viewBox="0 0 32 32" fill="none" xmlns="http://www.w3.org/2000/svg">
<g clip-path="url(#clip0_392_9)">
<path d="M16.1775 31.9012C16.0459 31.9014 15.9169 31.8647 15.8051 31.7952C15.6934 31.7256 15.6035 31.6261 15.5456 31.5079C15.4894 31.3966 15.4656 31.2719 15.4768 31.1478C15.4879 31.0237 15.5337 30.9052 15.6087 30.8057L23.0803 20.5184L9.99816 25.8622C9.90948 25.9008 9.81395 25.9211 9.71726 25.9219C9.5659 25.9211 9.41884 25.8715 9.29799 25.7804C9.17713 25.6893 9.08895 25.5616 9.04658 25.4163C9.00323 25.2743 9.00795 25.122 9.06 24.983C9.11205 24.844 9.20852 24.726 9.33446 24.6474L20.8402 17.8535L0.58142 16.6879C0.418593 16.6595 0.271014 16.5745 0.164661 16.448C0.0583085 16.3214 0 16.1615 0 15.9962C0 15.8309 0.0583085 15.6709 0.164661 15.5444C0.271014 15.4178 0.418593 15.3329 0.58142 15.3044L20.8508 14.1422L9.34156 7.34851C9.2156 7.26993 9.11911 7.15196 9.06705 7.01292C9.015 6.87388 9.0103 6.72154 9.05368 6.57955C9.09587 6.43484 9.18351 6.30754 9.30364 6.21649C9.42377 6.12543 9.57001 6.07545 9.72074 6.07393C9.81791 6.07356 9.91383 6.09511 10.0016 6.13709L23.0873 11.4879L15.6157 1.20419C15.5406 1.10471 15.4949 0.986187 15.4837 0.862055C15.4726 0.737923 15.4964 0.613146 15.5525 0.50187C15.6087 0.382246 15.6975 0.280899 15.8087 0.20948C15.9199 0.138062 16.049 0.099471 16.1811 0.0981445C16.3655 0.0993902 16.5416 0.175377 16.669 0.308789L31.5594 15.1958C31.771 15.4078 31.8899 15.695 31.8899 15.9945C31.8899 16.294 31.771 16.5813 31.5594 16.7933L16.6621 31.6976C16.5989 31.7621 16.5235 31.8133 16.4403 31.8483C16.3571 31.8832 16.2677 31.9012 16.1775 31.9012Z" fill="white"/>
</g>
<defs>
<clipPath id="clip0_392_9">
<rect width="32" height="32" fill="white"/>
</clipPath>
</defs>
</svg>
