<svg width="33" height="32" viewBox="0 0 33 32" fill="none" xmlns="http://www.w3.org/2000/svg">
<g clip-path="url(#clip0_310_49)">
<path d="M16.3689 31.9012C16.2373 31.9014 16.1083 31.8647 15.9965 31.7952C15.8848 31.7256 15.7949 31.6261 15.737 31.5079C15.6809 31.3966 15.657 31.2719 15.6682 31.1478C15.6794 31.0237 15.7251 30.9052 15.8001 30.8057L23.2717 20.5184L10.1896 25.8622C10.1009 25.9008 10.0054 25.9211 9.90866 25.9219C9.75731 25.9211 9.61025 25.8715 9.48939 25.7804C9.36854 25.6893 9.28036 25.5616 9.23799 25.4163C9.19464 25.2743 9.19935 25.122 9.2514 24.983C9.30345 24.844 9.39993 24.726 9.52586 24.6474L21.0316 17.8535L0.772827 16.6879C0.61 16.6595 0.46242 16.5745 0.356068 16.448C0.249715 16.3214 0.191406 16.1615 0.191406 15.9962C0.191406 15.8309 0.249715 15.6709 0.356068 15.5444C0.46242 15.4178 0.61 15.3329 0.772827 15.3044L21.0422 14.1422L9.53296 7.34851C9.40701 7.26993 9.31051 7.15196 9.25846 7.01292C9.20641 6.87388 9.20171 6.72154 9.24509 6.57955C9.28728 6.43484 9.37492 6.30754 9.49505 6.21649C9.61518 6.12543 9.76142 6.07545 9.91215 6.07393C10.0093 6.07356 10.1052 6.09511 10.1931 6.13709L23.2787 11.4879L15.8071 1.20419C15.732 1.10471 15.6863 0.986187 15.6751 0.862055C15.664 0.737923 15.6878 0.613146 15.7439 0.50187C15.8001 0.382246 15.8889 0.280899 16.0001 0.20948C16.1113 0.138062 16.2404 0.099471 16.3725 0.0981445C16.5569 0.0993902 16.733 0.175377 16.8604 0.308789L31.7508 15.1958C31.9624 15.4078 32.0813 15.695 32.0813 15.9945C32.0813 16.294 31.9624 16.5813 31.7508 16.7933L16.8535 31.6976C16.7903 31.7621 16.7149 31.8133 16.6317 31.8483C16.5485 31.8832 16.4591 31.9012 16.3689 31.9012Z" fill="black"/>
</g>
<defs>
<clipPath id="clip0_310_49">
<rect width="32" height="32" fill="white" transform="translate(0.191406)"/>
</clipPath>
</defs>
</svg>
