<svg width="32" height="32" viewBox="0 0 32 32" fill="none" xmlns="http://www.w3.org/2000/svg">
<g clip-path="url(#clip0_235_140)">
<rect width="32" height="32" fill="#171717"/>
<g clip-path="url(#clip1_235_140)">
<rect width="32" height="32" fill="#171717"/>
<path d="M13.44 0.217529L14.032 0.265529C14.3413 0.288996 14.3456 0.340196 14.0448 0.419129C13.9637 0.440463 13.8859 0.467129 13.8112 0.499129C13.6619 0.565263 13.6469 0.652729 13.7664 0.761529C13.7899 0.782863 13.8027 0.812729 13.8048 0.851129C13.8069 0.895929 13.7867 0.924729 13.744 0.937529C13.6949 0.954596 13.6512 0.981263 13.6128 1.01753C13.5381 1.0858 13.5413 1.14873 13.6224 1.20633C13.6693 1.24046 13.7248 1.2554 13.7888 1.25113C13.8848 1.2426 13.9403 1.19033 13.9552 1.09433C13.9701 0.991929 14.0395 0.928996 14.1632 0.905529C14.1832 0.90159 14.2038 0.903162 14.223 0.910078C14.2421 0.916994 14.259 0.928992 14.2718 0.944783C14.2846 0.960575 14.2929 0.979563 14.2958 0.999709C14.2986 1.01985 14.2959 1.0404 14.288 1.05913C14.2603 1.12313 14.2773 1.17006 14.3392 1.19993C14.4183 1.23952 14.5055 1.25405 14.5888 1.24153C14.6229 1.23513 14.6581 1.233 14.6944 1.23513C14.816 1.2458 14.8875 1.31086 14.9088 1.43033L14.9792 1.83673C13.7952 2.10126 12.8352 2.69646 12.0992 3.62233C12.0181 3.7226 12.0395 3.793 12.1632 3.83353C12.2229 3.8506 12.3061 3.83993 12.4128 3.80153C12.4533 3.95726 12.4843 4.00633 12.5056 3.94873L11.8912 4.08953C11.7909 4.113 11.7152 4.16953 11.664 4.25913C10.368 6.47353 11.168 9.14233 13.0688 10.6271C12.7915 10.5695 12.6112 10.5866 12.528 10.6783C12.4341 10.7786 12.4555 10.8287 12.592 10.8287C12.8075 10.8266 13.0155 10.8671 13.216 10.9503C13.3504 11.0058 13.3685 11.0879 13.2704 11.1967C13.1787 11.297 13.1531 11.4175 13.1936 11.5583C13.232 11.6842 13.28 11.6885 13.3376 11.5711C13.4229 11.4005 13.5808 11.3162 13.8112 11.3183C13.9349 11.3183 13.9648 11.3717 13.9008 11.4783C13.7984 11.6447 13.7611 11.8325 13.7888 12.0415C13.7995 12.1311 13.8389 12.2058 13.9072 12.2655C13.9627 12.3167 14.0288 12.3487 14.1056 12.3615C14.2699 12.385 14.3019 12.4629 14.2016 12.5951C14.1269 12.689 14.0363 12.7573 13.9296 12.7999C13.9077 12.809 13.8879 12.8224 13.8715 12.8394C13.8551 12.8564 13.8424 12.8765 13.8342 12.8986C13.8261 12.9206 13.8227 12.9439 13.8242 12.9672C13.8258 12.9904 13.8322 13.013 13.8432 13.0335L13.888 13.1135C13.9712 13.2714 14.0203 13.2618 14.0352 13.0847C14.0459 12.9631 14.0469 12.9109 14.0384 12.9279C14.0021 13.009 14.0224 13.0709 14.0992 13.1135C14.1483 13.1391 14.1771 13.1242 14.1856 13.0687C14.1856 13.0581 14.1856 13.0474 14.1856 13.0367C14.1728 12.9023 14.2155 12.8831 14.3136 12.9791C14.4565 13.1199 14.4757 13.2554 14.3712 13.3855C14.3285 13.4389 14.3403 13.4762 14.4064 13.4975L14.6432 13.5743C14.7563 13.6127 14.7925 13.6874 14.752 13.7983C14.7413 13.8325 14.7424 13.8666 14.7552 13.9007C14.8085 14.0437 14.8949 14.0671 15.0144 13.9711C15.1637 13.8538 15.3419 13.7973 15.5488 13.8015C15.6619 13.8037 15.7173 13.8623 15.7152 13.9775C15.7131 14.0949 15.7291 14.2026 15.7632 14.3007C15.3728 14.3263 15.1776 14.5461 15.1776 14.9599C15.1819 15.8837 15.1925 16.7605 15.2096 17.5903C15.2181 17.9466 15.4016 18.1237 15.76 18.1215L16.8352 18.1119C17.1893 18.1077 17.3632 17.9285 17.3568 17.5743L17.2896 14.3199C17.7973 14.1727 17.9584 14.369 17.7728 14.9087C17.7643 14.9343 17.7621 14.9503 17.7664 14.9567L17.8144 15.0527C17.8677 15.153 17.872 15.2543 17.8272 15.3567C17.776 15.4677 17.7931 15.5722 17.8784 15.6703C17.9701 15.7749 17.9872 15.8901 17.9296 16.0159C17.8891 16.1055 17.8656 16.2015 17.8592 16.3039C17.8507 16.4234 17.7963 16.449 17.696 16.3807C17.6128 16.3231 17.5253 16.3541 17.4336 16.4735C17.4123 16.5013 17.4144 16.5269 17.44 16.5503C17.4656 16.5738 17.4773 16.6005 17.4752 16.6303C17.4645 16.833 17.5328 16.8629 17.68 16.7199C17.6992 16.7007 17.7184 16.6805 17.7376 16.6591C17.8123 16.5717 17.8336 16.5834 17.8016 16.6943C17.744 16.897 17.8069 17.0293 17.9904 17.0911C18.0495 17.1111 18.1001 17.1507 18.1338 17.2037C18.1675 17.2566 18.1824 17.3196 18.176 17.3823C18.1504 17.6149 18.2283 17.8069 18.4096 17.9583C18.451 17.993 18.501 18.0155 18.5541 18.0235C18.6072 18.0314 18.6613 18.0243 18.7104 18.0031C18.8555 17.9434 18.9899 17.9605 19.1136 18.0543C19.4848 18.3381 19.8475 18.6325 20.2016 18.9375C20.2805 19.0058 20.3413 19.0869 20.384 19.1807C20.4437 19.3194 20.5525 19.3887 20.7104 19.3887C20.8256 19.3887 20.9205 19.4314 20.9952 19.5167L21.872 20.5055C21.9296 20.5717 21.9979 20.6218 22.0768 20.6559C22.4032 20.7903 22.6059 21.0303 22.6848 21.3759C22.7104 21.489 22.7808 21.5562 22.896 21.5775C23.2011 21.633 23.4283 21.9509 23.5776 22.5311L23.6064 24.8031C23.6128 25.2234 23.8261 25.4335 24.2464 25.4335L25.2032 25.4367C25.6128 25.4367 25.8187 25.2319 25.8208 24.8223L25.8496 21.3599L25.9744 22.1887C25.9915 22.3103 26.0608 22.3647 26.1824 22.3519C26.3787 22.3327 26.512 22.4159 26.5824 22.6015C26.5972 22.6409 26.6214 22.6758 26.6527 22.7032C26.684 22.7306 26.7214 22.7495 26.7616 22.7583C26.9707 22.8053 27.1456 22.9151 27.2864 23.0879C27.7301 23.6341 28.1888 24.1322 28.6624 24.5823C28.7273 24.6433 28.8107 24.6806 28.899 24.6881C28.9874 24.6957 29.0754 24.6731 29.1488 24.6239C29.3088 24.5173 29.4133 24.529 29.4624 24.6591C26.5419 29.0154 22.4181 31.4623 17.0912 31.9999H14.88C8.43947 31.2746 3.91573 28.065 1.3088 22.3711C0.626133 20.8799 0.189867 19.121 0 17.0943V14.9311C0.567467 9.26073 3.23307 4.99726 7.9968 2.14073C9.61813 1.17006 11.4325 0.528996 13.44 0.217529ZM7.0336 14.8127C7.0336 14.682 6.98168 14.5567 6.88926 14.4643C6.79684 14.3718 6.6715 14.3199 6.5408 14.3199H5.3568C5.2261 14.3199 5.10076 14.3718 5.00834 14.4643C4.91592 14.5567 4.864 14.682 4.864 14.8127V24.8031C4.864 24.9338 4.91592 25.0592 5.00834 25.1516C5.10076 25.244 5.2261 25.2959 5.3568 25.2959H6.5408C6.6715 25.2959 6.79684 25.244 6.88926 25.1516C6.98168 25.0592 7.0336 24.9338 7.0336 24.8031V14.8127ZM17.3728 19.2319C17.3728 19.097 17.3192 18.9676 17.2238 18.8722C17.1284 18.7767 16.9989 18.7231 16.864 18.7231H15.712C15.6452 18.7231 15.579 18.7363 15.5173 18.7619C15.4556 18.7874 15.3995 18.8249 15.3522 18.8722C15.305 18.9194 15.2675 18.9755 15.2419 19.0372C15.2164 19.099 15.2032 19.1651 15.2032 19.2319V24.8319C15.2032 24.8987 15.2164 24.9649 15.2419 25.0266C15.2675 25.0884 15.305 25.1445 15.3522 25.1917C15.3995 25.2389 15.4556 25.2764 15.5173 25.302C15.579 25.3276 15.6452 25.3407 15.712 25.3407H16.864C16.9308 25.3407 16.997 25.3276 17.0587 25.302C17.1204 25.2764 17.1765 25.2389 17.2238 25.1917C17.271 25.1445 17.3085 25.0884 17.3341 25.0266C17.3596 24.9649 17.3728 24.8987 17.3728 24.8319V19.2319ZM12.4608 23.6991C12.4608 23.565 12.4075 23.4364 12.3127 23.3416C12.2179 23.2468 12.0893 23.1935 11.9552 23.1935H8.448C8.31391 23.1935 8.18531 23.2468 8.09049 23.3416C7.99567 23.4364 7.9424 23.565 7.9424 23.6991V24.7999C7.9424 24.934 7.99567 25.0626 8.09049 25.1574C8.18531 25.2523 8.31391 25.3055 8.448 25.3055H11.9552C12.0893 25.3055 12.2179 25.2523 12.3127 25.1574C12.4075 25.0626 12.4608 24.934 12.4608 24.7999V23.6991Z" fill="#171717"/>
<path d="M20.8253 7.31849C20.6482 8.22942 20.2781 9.04542 19.7149 9.76649C19.6018 9.90942 19.5357 9.89022 19.5165 9.70889C19.1293 6.17609 16.1309 3.33129 12.4125 3.80169C12.3058 3.84009 12.2226 3.85075 12.1629 3.83369C12.0392 3.79315 12.0178 3.72275 12.0989 3.62249C12.8349 2.69662 13.7949 2.10142 14.9789 1.83689C18.4093 1.30249 21.0973 3.85929 20.8253 7.31849ZM13.4717 3.25449C16.5245 3.50089 18.8765 5.39209 19.7501 8.34249C19.8248 8.59635 19.909 8.59955 20.0029 8.35209C21.5805 4.16649 17.1869 0.668885 13.4141 3.02089C13.1965 3.15529 13.2157 3.23315 13.4717 3.25449Z" fill="white"/>
<path d="M19.7506 8.34234C18.877 5.39194 16.525 3.50074 13.4722 3.25434C13.2162 3.23301 13.197 3.15514 13.4146 3.02074C17.1874 0.668739 21.581 4.16634 20.0034 8.35194C19.9095 8.59941 19.8253 8.59621 19.7506 8.34234Z" fill="#222222"/>
<path d="M12.5051 3.94873C16.1041 3.96366 18.3547 5.70126 19.2571 9.16153C19.2699 9.21273 19.2518 9.24686 19.2027 9.26393L19.1259 9.29273C19.1131 9.297 19.1046 9.29273 19.1003 9.27993C18.0635 6.71993 16.1233 5.361 13.2795 5.20313C13.0619 5.19033 12.9254 5.28953 12.8699 5.50073C12.3451 7.489 12.6619 9.2778 13.8203 10.8671C13.927 11.0122 13.8993 11.0442 13.7371 10.9631L13.0683 10.6271C11.1675 9.14233 10.3675 6.47353 11.6635 4.25913C11.7147 4.16953 11.7905 4.113 11.8907 4.08953L12.5051 3.94873Z" fill="white"/>
<path d="M6.54106 14.3201H5.35706C5.08489 14.3201 4.86426 14.5407 4.86426 14.8129V24.8033C4.86426 25.0754 5.08489 25.2961 5.35706 25.2961H6.54106C6.81322 25.2961 7.03386 25.0754 7.03386 24.8033V14.8129C7.03386 14.5407 6.81322 14.3201 6.54106 14.3201Z" fill="white"/>
<path d="M15.7633 14.3008L17.2897 14.32L17.3569 17.5744C17.3633 17.9285 17.1895 18.1077 16.8353 18.112L15.7601 18.1216C15.4017 18.1237 15.2183 17.9466 15.2097 17.5904C15.1927 16.7605 15.182 15.8837 15.1777 14.96C15.1777 14.5461 15.3729 14.3264 15.7633 14.3008Z" fill="white"/>
<path d="M22.1771 14.3155L20.6219 14.3182C20.3356 14.3187 20.1039 14.5512 20.1044 14.8375L20.1064 15.9447C20.1069 16.231 20.3394 16.4627 20.6257 16.4622L22.1809 16.4595C22.4672 16.459 22.6988 16.2265 22.6983 15.9402L22.6964 14.833C22.6959 14.5467 22.4634 14.315 22.1771 14.3155Z" fill="white"/>
<path d="M25.1067 14.2593L28.8603 14.3233C28.9591 14.325 29.0544 14.3604 29.1305 14.4238C29.2067 14.4872 29.2593 14.5747 29.2795 14.6721C29.4481 15.5083 29.3446 16.1089 28.9691 16.4737L26.0187 16.4961C25.9099 16.4982 25.8555 16.5537 25.8555 16.6625L25.8491 21.3601L25.8203 24.8225C25.8182 25.2321 25.6123 25.4369 25.2027 25.4369L24.2459 25.4337C23.8257 25.4337 23.6123 25.2235 23.6059 24.8033L23.5771 22.5313L23.5995 14.8417C23.5992 14.7135 23.6476 14.5899 23.735 14.4961C23.8223 14.4022 23.942 14.345 24.0699 14.3361L25.1067 14.2593Z" fill="white"/>
<path d="M28.9696 16.4736L29.3568 16.7456C29.4421 16.8075 29.504 16.8886 29.5424 16.9888C29.5787 17.087 29.648 17.1552 29.7504 17.1936C29.8421 17.2278 29.9211 17.28 29.9872 17.3504L30.9792 18.3776C31.024 18.4224 31.0293 18.4715 30.9952 18.5248L30.944 18.6016C30.9013 18.6678 30.9045 18.7307 30.9536 18.7904C31.088 18.959 31.2555 19.055 31.456 19.0784C31.5883 19.0934 31.6309 19.039 31.584 18.9152C31.5477 18.8171 31.4805 18.7659 31.3824 18.7616C31.2907 18.7595 31.2405 18.7126 31.232 18.6208C31.2256 18.5504 31.2469 18.4907 31.296 18.4416C31.3813 18.3563 31.4731 18.3488 31.5712 18.4192L31.7856 18.5792C31.4379 20.7403 30.6635 22.767 29.4624 24.6592C29.4133 24.5291 29.3088 24.5174 29.1488 24.624C29.0754 24.6732 28.9874 24.6958 28.899 24.6883C28.8107 24.6807 28.7273 24.6434 28.6624 24.5824C28.1888 24.1323 27.7301 23.6342 27.2864 23.088C27.1456 22.9152 26.9707 22.8054 26.7616 22.7584C26.7214 22.7496 26.684 22.7307 26.6527 22.7033C26.6214 22.6759 26.5972 22.641 26.5824 22.6016C26.512 22.416 26.3787 22.3328 26.1824 22.352C26.0608 22.3648 25.9915 22.3104 25.9744 22.1888L25.8496 21.36L25.856 16.6624C25.856 16.5536 25.9104 16.4982 26.0192 16.496L28.9696 16.4736Z" fill="#222222"/>
<path d="M16.8639 18.7231H15.7119C15.4309 18.7231 15.2031 18.9509 15.2031 19.2319V24.8319C15.2031 25.1129 15.4309 25.3407 15.7119 25.3407H16.8639C17.1449 25.3407 17.3727 25.1129 17.3727 24.8319V19.2319C17.3727 18.9509 17.1449 18.7231 16.8639 18.7231Z" fill="white"/>
<path d="M11.9552 23.1936H8.44798C8.16875 23.1936 7.94238 23.42 7.94238 23.6992V24.8C7.94238 25.0792 8.16875 25.3056 8.44798 25.3056H11.9552C12.2344 25.3056 12.4608 25.0792 12.4608 24.8V23.6992C12.4608 23.42 12.2344 23.1936 11.9552 23.1936Z" fill="white"/>
</g>
</g>
<defs>
<clipPath id="clip0_235_140">
<rect width="32" height="32" fill="white"/>
</clipPath>
<clipPath id="clip1_235_140">
<rect width="32" height="32" fill="white"/>
</clipPath>
</defs>
</svg>
