<svg width="256" height="256" viewBox="0 0 256 256" fill="none" xmlns="http://www.w3.org/2000/svg">
<g clip-path="url(#clip0_330_6)">
<g clip-path="url(#clip1_330_6)">
<path d="M62.7465 40.7606C65.6344 32.0967 73.3748 25.9622 82.4693 25.1296L209.5 13.5L227 98L234.803 137.016C235.259 139.297 235.095 141.658 234.328 143.854L221 182L74.5 191.5L63 99.5L57.0134 62.6595C56.6762 60.5841 56.8473 58.458 57.5122 56.4634L62.7465 40.7606Z" fill="white"/>
<path d="M134.496 124.857C135.437 128.367 134.974 131.531 133.108 134.351C131.298 137.084 128.633 138.699 125.111 139.194L109.149 141.437C105.627 141.932 102.283 141.162 99.1162 139.128C95.9295 137.019 93.8659 134.209 92.9254 130.699L84.1013 97.7673C83.4811 95.4523 83.495 93.2807 84.1431 91.2524C84.8478 89.1387 86.007 87.3873 87.6208 85.9982C89.2346 84.6091 91.2282 83.7477 93.6015 83.4142L107.152 81.5098C108.224 81.3591 108.64 80.8357 108.4 79.9396L105.398 68.7383C104.998 67.2448 105.166 65.9427 105.901 64.832C106.636 63.7214 107.731 63.0638 109.185 62.8594L112.401 62.4075C113.855 62.2031 115.21 62.5163 116.466 63.3472C117.721 64.1781 118.549 65.3403 118.949 66.8339L134.496 124.857ZM120.375 124.633L112.752 96.1816C112.472 95.1361 111.796 94.6887 110.724 94.8394L99.5847 96.4049C99.2019 96.4587 98.8591 96.6618 98.5564 97.0143C98.3302 97.3561 98.2771 97.751 98.3972 98.199L106.021 126.65C106.121 127.024 106.364 127.338 106.75 127.594C107.213 127.839 107.636 127.934 108.019 127.881L119.158 126.315C120.23 126.165 120.635 125.604 120.375 124.633ZM162.175 125.267C162.796 127.582 162.445 129.685 161.125 131.575C159.881 133.455 158.072 134.561 155.699 134.895C153.402 135.218 151.153 134.682 148.952 133.286C146.828 131.88 145.455 130.019 144.835 127.704C144.215 125.39 144.527 123.292 145.771 121.413C147.091 119.522 148.9 118.416 151.197 118.093C153.57 117.759 155.819 118.296 157.943 119.702C160.144 121.097 161.555 122.952 162.175 125.267ZM214.081 121.343C214.462 122.762 214.294 124.064 213.579 125.249C212.844 126.36 211.749 127.018 210.294 127.222L207.079 127.674C205.624 127.878 204.269 127.565 203.014 126.734C201.739 125.829 200.911 124.666 200.531 123.248L190.356 85.275C190.236 84.827 189.945 84.4805 189.482 84.2356C189.095 83.9799 188.711 83.879 188.328 83.9328L177.189 85.4983C176.806 85.5521 176.463 85.7552 176.161 86.1077C175.934 86.4495 175.881 86.8444 176.001 87.2924L186.176 125.265C186.556 126.684 186.389 127.986 185.674 129.171C184.939 130.282 183.844 130.939 182.389 131.144L179.174 131.596C177.719 131.8 176.326 131.492 174.994 130.672C173.719 129.767 172.891 128.604 172.511 127.186L154.983 61.7697C154.582 60.2762 154.75 58.9741 155.485 57.8634C156.297 56.742 157.43 56.0791 158.884 55.8746L162.1 55.4227C163.554 55.2183 164.909 55.5316 166.165 56.3625C167.42 57.1934 168.248 58.3556 168.648 59.8491L171.649 71.0505C171.749 71.4238 171.993 71.7384 172.379 71.994C172.822 72.1643 173.235 72.2225 173.617 72.1687L187.168 70.2643C189.541 69.9307 191.835 70.1895 194.049 71.0407C196.263 71.8918 198.204 73.2075 199.873 74.9877C201.522 76.6932 202.656 78.7034 203.276 81.0183L214.081 121.343Z" fill="#3E63DD"/>
<path d="M230.308 37.0445C226.011 12.6672 202.765 -3.60997 178.387 0.688412L81.9083 17.7002C70.2018 19.7644 59.7949 26.3945 52.9765 36.1314L16.1038 88.7915C9.28563 98.5288 6.61496 110.576 8.67922 122.282L25.6908 218.761C29.9892 243.138 53.2354 259.415 77.613 255.116L174.091 238.105C185.798 236.042 196.204 229.411 203.022 219.674L239.896 167.014C246.714 157.276 249.384 145.23 247.321 133.523L230.308 37.0445ZM229.776 137.264C232.355 151.89 222.588 165.838 207.961 168.417L110.856 185.539C96.2296 188.117 82.2817 178.352 79.7025 163.726L62.5801 66.6197C60.0011 51.9932 69.7676 38.0456 84.3938 35.4665L181.501 18.344C196.126 15.765 210.074 25.5312 212.652 40.1576L229.776 137.264Z" fill="#3E63DD"/>
</g>
</g>
<defs>
<clipPath id="clip0_330_6">
<rect width="256" height="256" fill="white"/>
</clipPath>
<clipPath id="clip1_330_6">
<rect width="240.185" height="256" fill="white" transform="translate(7.90723)"/>
</clipPath>
</defs>
</svg>
