<svg width="33" height="32" viewBox="0 0 33 32" fill="none" xmlns="http://www.w3.org/2000/svg">
<g clip-path="url(#clip0_310_17)">
<path d="M5.46227 10.1296C6.52119 10.1296 7.37962 9.25749 7.37962 8.18164C7.37962 7.10579 6.52119 6.23364 5.46227 6.23364C4.40335 6.23364 3.54492 7.10579 3.54492 8.18164C3.54492 9.25749 4.40335 10.1296 5.46227 10.1296Z" fill="#509EE3"/>
<path d="M5.46227 15.584C6.52119 15.584 7.37962 14.7118 7.37962 13.636C7.37962 12.5601 6.52119 11.688 5.46227 11.688C4.40335 11.688 3.54492 12.5601 3.54492 13.636C3.54492 14.7118 4.40335 15.584 5.46227 15.584Z" fill="#509EE3"/>
<path opacity="0.2" d="M10.8314 10.1296C11.8903 10.1296 12.7488 9.25749 12.7488 8.18164C12.7488 7.10579 11.8903 6.23364 10.8314 6.23364C9.77249 6.23364 8.91406 7.10579 8.91406 8.18164C8.91406 9.25749 9.77249 10.1296 10.8314 10.1296Z" fill="#509EE3"/>
<path d="M10.8314 15.637C11.8903 15.637 12.7488 14.7648 12.7488 13.689C12.7488 12.6131 11.8903 11.741 10.8314 11.741C9.77249 11.741 8.91406 12.6131 8.91406 13.689C8.91406 14.7648 9.77249 15.637 10.8314 15.637Z" fill="#509EE3"/>
<path opacity="0.2" d="M16.1986 10.1296C17.2575 10.1296 18.1159 9.25749 18.1159 8.18164C18.1159 7.10579 17.2575 6.23364 16.1986 6.23364C15.1397 6.23364 14.2812 7.10579 14.2812 8.18164C14.2812 9.25749 15.1397 10.1296 16.1986 10.1296Z" fill="#509EE3"/>
<path opacity="0.2" d="M16.1986 3.89599C17.2575 3.89599 18.1159 3.02385 18.1159 1.948C18.1159 0.872148 17.2575 0 16.1986 0C15.1397 0 14.2812 0.872148 14.2812 1.948C14.2812 3.02385 15.1397 3.89599 16.1986 3.89599Z" fill="#509EE3"/>
<path opacity="0.2" d="M16.1986 15.637C17.2575 15.637 18.1159 14.7648 18.1159 13.689C18.1159 12.6131 17.2575 11.741 16.1986 11.741C15.1397 11.741 14.2812 12.6131 14.2812 13.689C14.2812 14.7648 15.1397 15.637 16.1986 15.637Z" fill="#509EE3"/>
<path opacity="0.2" d="M21.5677 10.1296C22.6267 10.1296 23.4851 9.25749 23.4851 8.18164C23.4851 7.10579 22.6267 6.23364 21.5677 6.23364C20.5088 6.23364 19.6504 7.10579 19.6504 8.18164C19.6504 9.25749 20.5088 10.1296 21.5677 10.1296Z" fill="#509EE3"/>
<path d="M26.9369 10.1296C27.9958 10.1296 28.8542 9.25749 28.8542 8.18164C28.8542 7.10579 27.9958 6.23364 26.9369 6.23364C25.878 6.23364 25.0195 7.10579 25.0195 8.18164C25.0195 9.25749 25.878 10.1296 26.9369 10.1296Z" fill="#509EE3"/>
<path d="M21.5677 15.637C22.6267 15.637 23.4851 14.7648 23.4851 13.689C23.4851 12.6131 22.6267 11.741 21.5677 11.741C20.5088 11.741 19.6504 12.6131 19.6504 13.689C19.6504 14.7648 20.5088 15.637 21.5677 15.637Z" fill="#509EE3"/>
<path d="M26.9369 15.637C27.9958 15.637 28.8542 14.7648 28.8542 13.689C28.8542 12.6131 27.9958 11.741 26.9369 11.741C25.878 11.741 25.0195 12.6131 25.0195 13.689C25.0195 14.7648 25.878 15.637 26.9369 15.637Z" fill="#509EE3"/>
<path d="M5.46227 21.0383C6.52119 21.0383 7.37962 20.1662 7.37962 19.0903C7.37962 18.0145 6.52119 17.1423 5.46227 17.1423C4.40335 17.1423 3.54492 18.0145 3.54492 19.0903C3.54492 20.1662 4.40335 21.0383 5.46227 21.0383Z" fill="#509EE3"/>
<path opacity="0.2" d="M10.8314 21.0913C11.8903 21.0913 12.7488 20.2192 12.7488 19.1433C12.7488 18.0675 11.8903 17.1953 10.8314 17.1953C9.77249 17.1953 8.91406 18.0675 8.91406 19.1433C8.91406 20.2192 9.77249 21.0913 10.8314 21.0913Z" fill="#509EE3"/>
<path d="M16.1986 21.0913C17.2575 21.0913 18.1159 20.2192 18.1159 19.1433C18.1159 18.0675 17.2575 17.1953 16.1986 17.1953C15.1397 17.1953 14.2812 18.0675 14.2812 19.1433C14.2812 20.2192 15.1397 21.0913 16.1986 21.0913Z" fill="#509EE3"/>
<path opacity="0.2" d="M21.5677 21.0913C22.6267 21.0913 23.4851 20.2192 23.4851 19.1433C23.4851 18.0675 22.6267 17.1953 21.5677 17.1953C20.5088 17.1953 19.6504 18.0675 19.6504 19.1433C19.6504 20.2192 20.5088 21.0913 21.5677 21.0913Z" fill="#509EE3"/>
<path d="M26.9369 21.0913C27.9958 21.0913 28.8542 20.2192 28.8542 19.1433C28.8542 18.0675 27.9958 17.1953 26.9369 17.1953C25.878 17.1953 25.0195 18.0675 25.0195 19.1433C25.0195 20.2192 25.878 21.0913 26.9369 21.0913Z" fill="#509EE3"/>
<path d="M5.46227 26.4927C6.52119 26.4927 7.37962 25.6205 7.37962 24.5447C7.37962 23.4688 6.52119 22.5967 5.46227 22.5967C4.40335 22.5967 3.54492 23.4688 3.54492 24.5447C3.54492 25.6205 4.40335 26.4927 5.46227 26.4927Z" fill="#509EE3"/>
<path opacity="0.2" d="M10.8314 26.5457C11.8903 26.5457 12.7488 25.6735 12.7488 24.5977C12.7488 23.5218 11.8903 22.6497 10.8314 22.6497C9.77249 22.6497 8.91406 23.5218 8.91406 24.5977C8.91406 25.6735 9.77249 26.5457 10.8314 26.5457Z" fill="#509EE3"/>
<path opacity="0.2" d="M16.1986 26.5457C17.2575 26.5457 18.1159 25.6735 18.1159 24.5977C18.1159 23.5218 17.2575 22.6497 16.1986 22.6497C15.1397 22.6497 14.2812 23.5218 14.2812 24.5977C14.2812 25.6735 15.1397 26.5457 16.1986 26.5457Z" fill="#509EE3"/>
<path opacity="0.2" d="M16.1986 32C17.2575 32 18.1159 31.1278 18.1159 30.052C18.1159 28.9761 17.2575 28.104 16.1986 28.104C15.1397 28.104 14.2812 28.9761 14.2812 30.052C14.2812 31.1278 15.1397 32 16.1986 32Z" fill="#509EE3"/>
<path opacity="0.2" d="M21.5677 26.5457C22.6267 26.5457 23.4851 25.6735 23.4851 24.5977C23.4851 23.5218 22.6267 22.6497 21.5677 22.6497C20.5088 22.6497 19.6504 23.5218 19.6504 24.5977C19.6504 25.6735 20.5088 26.5457 21.5677 26.5457Z" fill="#509EE3"/>
<path d="M26.9369 26.5457C27.9958 26.5457 28.8542 25.6735 28.8542 24.5977C28.8542 23.5218 27.9958 22.6497 26.9369 22.6497C25.878 22.6497 25.0195 23.5218 25.0195 24.5977C25.0195 25.6735 25.878 26.5457 26.9369 26.5457Z" fill="#509EE3"/>
</g>
<defs>
<clipPath id="clip0_310_17">
<rect width="32" height="32" fill="white" transform="translate(0.199219)"/>
</clipPath>
</defs>
</svg>
