<svg width="35" height="32" viewBox="0 0 35 32" fill="none" xmlns="http://www.w3.org/2000/svg">
<g clip-path="url(#clip0_310_107)">
<path d="M10.3048 13.2027H14.5684C13.5008 12.5338 13.1021 11.6014 12.5684 9.87162L10.967 3.93919C10.2373 1.27027 9.63593 0.00675676 6.70349 0.00675676H0.575116V1.60811H1.44674C3.24403 1.60811 3.44674 2.27703 3.98052 4.27703L5.37917 9.47973C6.1089 12.0068 7.25079 13.2027 10.3048 13.2027ZM20.1765 13.2027H24.44C27.5075 13.2027 28.5684 12 29.3048 9.47297L30.7035 4.27027C31.2373 2.27027 31.5008 1.60135 33.2373 1.60135H34.1089V0H28.0413C25.0413 0 24.44 1.2027 23.7711 3.93243L22.1697 9.86487C21.6427 11.6622 21.2373 12.5338 20.1765 13.2027ZM14.5751 18.7973H20.1765V13.1959H14.5751V18.7973ZM0.575116 32H6.70349C9.63593 32 10.2373 30.7297 10.967 28.0676L12.5684 22.1351C13.1021 20.4054 13.5008 19.4662 14.5684 18.8041H10.3048C7.23728 18.8041 6.10214 20.0068 5.37241 22.5338L3.97376 27.7365C3.43998 29.7365 3.24403 30.4054 1.43998 30.4054H0.568359L0.575116 32ZM28.0346 32H34.1021V30.3987H33.2305C31.5008 30.3987 31.2305 29.7297 30.6967 27.7297L29.2981 22.527C28.5684 19.9932 27.5008 18.7973 24.4332 18.7973H20.1765C21.244 19.4662 21.6292 20.3311 22.163 22.1284L23.7643 28.0608C24.4332 30.7973 25.0346 32 28.0346 32Z" fill="#7856FF"/>
</g>
<defs>
<clipPath id="clip0_310_107">
<rect width="33.5405" height="32" fill="white" transform="translate(0.568359)"/>
</clipPath>
</defs>
</svg>
