<svg width="32" height="32" viewBox="0 0 32 32" fill="none" xmlns="http://www.w3.org/2000/svg">
<path d="M20.6356 4.63552C19.0381 4.63268 17.4583 4.97058 16.0018 5.62668C14.2714 4.85307 12.375 4.52457 10.4852 4.6711C8.59548 4.81763 6.77239 5.43452 5.18195 6.46562C3.59151 7.49672 2.28425 8.90927 1.37918 10.5747C0.474116 12.24 0 14.1054 0 16.0008C0 17.8962 0.474116 19.7616 1.37918 21.427C2.28425 23.0923 3.59151 24.5049 5.18195 25.536C6.77239 26.5671 8.59548 27.184 10.4852 27.3305C12.375 27.477 14.2714 27.1485 16.0018 26.3749C17.548 27.0656 19.229 27.4019 20.9219 27.3594C22.6148 27.3168 24.2768 26.8964 25.7863 26.1289C27.2959 25.3615 28.6148 24.2663 29.6467 22.9236C30.6786 21.5809 31.3973 20.0245 31.7503 18.3682C32.1034 16.712 32.0818 14.9978 31.6871 13.351C31.2925 11.7042 30.5348 10.1664 29.4694 8.85009C28.404 7.53377 27.0579 6.47219 25.5295 5.743C24.0011 5.0138 22.3291 4.63542 20.6356 4.63552ZM16.0018 26.2581C13.9688 26.2588 11.9814 25.6563 10.291 24.527C8.60054 23.3977 7.28312 21.7923 6.50544 19.9139C5.72775 18.0356 5.52475 15.9688 5.92213 13.9751C6.3195 11.9813 7.29939 10.1503 8.73779 8.71368C10.1762 7.27705 12.0084 6.29941 14.0026 5.90449C15.9969 5.50957 18.0634 5.71511 19.9408 6.4951C21.8181 7.2751 23.4219 8.59449 24.5492 10.2863C25.6764 11.9781 26.2764 13.9663 26.2733 15.9992C26.2691 18.721 25.1852 21.3298 23.2595 23.2532C21.3337 25.1766 18.7235 26.2573 16.0018 26.2581ZM20.7272 15.9992C20.7272 16.9357 20.4495 17.8511 19.9292 18.6298C19.4089 19.4084 18.6694 20.0153 17.8043 20.3737C16.9391 20.7321 15.987 20.8258 15.0686 20.6431C14.1501 20.4604 13.3064 20.0095 12.6442 19.3473C11.982 18.6851 11.5311 17.8414 11.3484 16.923C11.1657 16.0045 11.2595 15.0525 11.6178 14.1873C11.9762 13.3221 12.5831 12.5826 13.3617 12.0623C14.1404 11.542 15.0558 11.2643 15.9923 11.2643C17.2481 11.2643 18.4524 11.7632 19.3404 12.6512C20.2283 13.5391 20.7272 14.7435 20.7272 15.9992Z" fill="#E60000"/>
</svg>
