<svg width="33" height="32" viewBox="0 0 33 32" fill="none" xmlns="http://www.w3.org/2000/svg">
<g clip-path="url(#clip0_310_110)">
<path d="M15.063 0.0249608C14.9943 0.0312101 14.7755 0.053083 14.5787 0.0687065C10.0385 0.478042 5.78578 2.9278 3.09229 6.69306C1.59243 8.78661 0.633154 11.1614 0.270689 13.6768C0.142577 14.5548 0.126953 14.8141 0.126953 16.0047C0.126953 17.1952 0.142577 17.4545 0.270689 18.3325C1.13935 24.3351 5.41081 29.3783 11.204 31.2469C12.2414 31.5813 13.335 31.8094 14.5787 31.9468C15.063 32 17.1565 32 17.6409 31.9468C19.7875 31.7094 21.6061 31.1782 23.3997 30.2626C23.6747 30.122 23.7278 30.0845 23.6903 30.0533C23.6653 30.0345 22.4935 28.4628 21.0874 26.563L18.5314 23.1102L15.3286 18.37C13.5663 15.764 12.1164 13.633 12.1039 13.633C12.0914 13.6299 12.0789 15.7359 12.0727 18.3076C12.0633 22.8102 12.0602 22.9915 12.0039 23.0977C11.9227 23.2508 11.8602 23.3133 11.7289 23.3821C11.629 23.4321 11.5415 23.4414 11.0696 23.4414H10.5291L10.3853 23.3508C10.2916 23.2914 10.2228 23.2133 10.176 23.1227L10.1104 22.9821L10.1166 16.7171L10.126 10.4489L10.2228 10.3271C10.2728 10.2615 10.3791 10.1771 10.4541 10.1365C10.5822 10.074 10.6322 10.0677 11.1727 10.0677C11.8102 10.0677 11.9164 10.0927 12.082 10.274C12.1289 10.324 13.8631 12.9362 15.9379 16.0828C18.0127 19.2293 20.8499 23.5258 22.2435 25.635L24.7745 29.469L24.9027 29.3846C26.0369 28.6472 27.2368 27.5973 28.1867 26.5036C30.2084 24.182 31.5114 21.351 31.9488 18.3325C32.077 17.4545 32.0926 17.1952 32.0926 16.0047C32.0926 14.8141 32.077 14.5548 31.9488 13.6768C31.0802 7.67421 26.8087 2.63096 21.0155 0.762389C19.9938 0.431171 18.9064 0.203068 17.6877 0.0655818C17.3878 0.0343348 15.3223 -3.68079e-05 15.063 0.0249608ZM21.6061 9.69277C21.7561 9.76776 21.878 9.91149 21.9217 10.0615C21.9467 10.1427 21.9529 11.8801 21.9467 15.7953L21.9373 21.4135L20.9468 19.8949L19.9531 18.3763V14.2923C19.9531 11.652 19.9656 10.1677 19.9844 10.0959C20.0344 9.92087 20.1437 9.78338 20.2937 9.70214C20.4218 9.63652 20.4687 9.63027 20.9593 9.63027C21.4217 9.63027 21.503 9.63652 21.6061 9.69277Z" fill="black"/>
<path d="M24.6172 29.5378C24.5078 29.6065 24.4734 29.6534 24.5703 29.6003C24.639 29.5597 24.7515 29.4753 24.7328 29.4722C24.7234 29.4722 24.6703 29.5034 24.6172 29.5378ZM24.4016 29.6784C24.3453 29.7221 24.3453 29.7253 24.4141 29.6909C24.4516 29.6721 24.4828 29.6503 24.4828 29.644C24.4828 29.619 24.4672 29.6253 24.4016 29.6784ZM24.2453 29.7721C24.1891 29.8159 24.1891 29.819 24.2578 29.7846C24.2953 29.7659 24.3266 29.744 24.3266 29.7378C24.3266 29.7128 24.3109 29.719 24.2453 29.7721ZM24.0891 29.8659C24.0328 29.9096 24.0328 29.9127 24.1016 29.8784C24.1391 29.8596 24.1703 29.8378 24.1703 29.8315C24.1703 29.8065 24.1547 29.8128 24.0891 29.8659ZM23.8516 29.9909C23.7329 30.0534 23.7391 30.0784 23.8579 30.019C23.911 29.9909 23.9516 29.9627 23.9516 29.9565C23.9516 29.9346 23.9485 29.9377 23.8516 29.9909Z" fill="black"/>
</g>
<defs>
<clipPath id="clip0_310_110">
<rect width="32" height="32" fill="white" transform="translate(0.109375)"/>
</clipPath>
</defs>
</svg>
