<svg width="32" height="32" viewBox="0 0 32 32" fill="none" xmlns="http://www.w3.org/2000/svg">
<g clip-path="url(#clip0_392_2)">
<path d="M14.9536 0.0249608C14.8849 0.0312101 14.6661 0.053083 14.4693 0.0687065C9.92911 0.478042 5.6764 2.9278 2.98291 6.69306C1.48306 8.78661 0.523779 11.1614 0.161314 13.6768C0.0332016 14.5548 0.0175781 14.8141 0.0175781 16.0047C0.0175781 17.1952 0.0332016 17.4545 0.161314 18.3325C1.02998 24.3351 5.30144 29.3783 11.0946 31.2469C12.132 31.5813 13.2257 31.8094 14.4693 31.9468C14.9536 32 17.0472 32 17.5315 31.9468C19.6782 31.7094 21.4967 31.1782 23.2903 30.2626C23.5653 30.122 23.6184 30.0845 23.5809 30.0533C23.5559 30.0345 22.3841 28.4628 20.978 26.563L18.422 23.1102L15.2192 18.37C13.4569 15.764 12.007 13.633 11.9945 13.633C11.982 13.6299 11.9695 15.7359 11.9633 18.3076C11.9539 22.8102 11.9508 22.9915 11.8945 23.0977C11.8133 23.2508 11.7508 23.3133 11.6196 23.3821C11.5196 23.4321 11.4321 23.4414 10.9603 23.4414H10.4197L10.276 23.3508C10.1822 23.2914 10.1135 23.2133 10.0666 23.1227L10.001 22.9821L10.0072 16.7171L10.0166 10.4489L10.1135 10.3271C10.1635 10.2615 10.2697 10.1771 10.3447 10.1365C10.4728 10.074 10.5228 10.0677 11.0634 10.0677C11.7008 10.0677 11.8071 10.0927 11.9727 10.274C12.0195 10.324 13.7537 12.9362 15.8285 16.0828C17.9033 19.2293 20.7406 23.5258 22.1342 25.635L24.6652 29.469L24.7933 29.3846C25.9275 28.6472 27.1274 27.5973 28.0773 26.5036C30.099 24.182 31.402 21.351 31.8395 18.3325C31.9676 17.4545 31.9832 17.1952 31.9832 16.0047C31.9832 14.8141 31.9676 14.5548 31.8395 13.6768C30.9708 7.67421 26.6993 2.63096 20.9062 0.762389C19.8844 0.431171 18.797 0.203068 17.5784 0.0655818C17.2784 0.0343348 15.213 -3.68079e-05 14.9536 0.0249608ZM21.4967 9.69277C21.6467 9.76776 21.7686 9.91149 21.8123 10.0615C21.8373 10.1427 21.8436 11.8801 21.8373 15.7953L21.8279 21.4135L20.8374 19.8949L19.8438 18.3763V14.2923C19.8438 11.652 19.8563 10.1677 19.875 10.0959C19.925 9.92087 20.0344 9.78338 20.1844 9.70214C20.3125 9.63652 20.3593 9.63027 20.8499 9.63027C21.3124 9.63027 21.3936 9.63652 21.4967 9.69277Z" fill="white"/>
<path d="M24.5088 29.5378C24.3994 29.6065 24.365 29.6534 24.4619 29.6003C24.5306 29.5597 24.6431 29.4753 24.6244 29.4722C24.615 29.4722 24.5619 29.5034 24.5088 29.5378ZM24.2932 29.6784C24.2369 29.7221 24.2369 29.7253 24.3057 29.6909C24.3432 29.6721 24.3744 29.6503 24.3744 29.644C24.3744 29.619 24.3588 29.6253 24.2932 29.6784ZM24.1369 29.7721C24.0807 29.8159 24.0807 29.819 24.1494 29.7846C24.1869 29.7659 24.2182 29.744 24.2182 29.7378C24.2182 29.7128 24.2025 29.719 24.1369 29.7721ZM23.9807 29.8659C23.9245 29.9096 23.9244 29.9127 23.9932 29.8784C24.0307 29.8596 24.0619 29.8378 24.0619 29.8315C24.0619 29.8065 24.0463 29.8128 23.9807 29.8659ZM23.7432 29.9909C23.6245 30.0534 23.6307 30.0784 23.7495 30.019C23.8026 29.9909 23.8432 29.9627 23.8432 29.9565C23.8432 29.9346 23.8401 29.9377 23.7432 29.9909Z" fill="white"/>
</g>
<defs>
<clipPath id="clip0_392_2">
<rect width="32" height="32" fill="white"/>
</clipPath>
</defs>
</svg>
