<svg width="32" height="32" viewBox="0 0 32 32" fill="none" xmlns="http://www.w3.org/2000/svg">
<rect width="32" height="32" fill="white"/>
<path d="M6.81008 11.1065V20.9689C6.81031 20.9815 6.81382 20.994 6.82027 21.0049C6.82672 21.0158 6.83588 21.0249 6.84688 21.0313L15.1573 25.8825C15.1685 25.8889 15.1812 25.8923 15.1941 25.8923C15.207 25.8923 15.2197 25.8889 15.2309 25.8825L20.3429 22.9401C20.3541 22.9336 20.3668 22.9302 20.3797 22.9302C20.3926 22.9302 20.4053 22.9336 20.4165 22.9401L30.2757 28.6745C30.2869 28.681 30.2962 28.6904 30.3026 28.7018C30.309 28.7131 30.3123 28.7259 30.3121 28.7389C30.312 28.7519 30.3084 28.7647 30.3017 28.7758C30.295 28.787 30.2855 28.7962 30.2741 28.8025L25.2997 31.6297C25.2882 31.6362 25.2751 31.6395 25.2619 31.6392C25.2486 31.6389 25.2357 31.6351 25.2245 31.6281L20.4181 28.6873C20.4067 28.6805 20.3937 28.6769 20.3805 28.6769C20.3672 28.6769 20.3543 28.6805 20.3429 28.6873L15.3077 31.6281C15.2966 31.6348 15.284 31.6384 15.2711 31.6387C15.2582 31.639 15.2454 31.6359 15.2341 31.6297L1.72688 23.7897C1.71588 23.7833 1.70672 23.7742 1.70027 23.7633C1.69382 23.7524 1.69031 23.7399 1.69008 23.7273L1.68848 8.19766C1.68843 8.18469 1.69181 8.17195 1.69827 8.16071C1.70473 8.14947 1.71405 8.14014 1.72528 8.13366L15.3093 0.370456C15.3205 0.363996 15.3332 0.360596 15.3461 0.360596C15.359 0.360596 15.3717 0.363996 15.3829 0.370456L28.6709 8.13846C28.6819 8.1448 28.691 8.15388 28.6975 8.16481C28.7039 8.17575 28.7074 8.18816 28.7077 8.20086V23.7209C28.7076 23.7334 28.7043 23.7457 28.6982 23.7566C28.692 23.7675 28.6832 23.7767 28.6725 23.7833L26.2901 25.2761C26.2785 25.2831 26.2652 25.2869 26.2517 25.2869C26.2381 25.2869 26.2248 25.2831 26.2133 25.2761L21.3909 22.3753C21.3799 22.3687 21.3709 22.3595 21.3646 22.3484C21.3583 22.3373 21.355 22.3248 21.355 22.3121C21.355 22.2993 21.3583 22.2868 21.3646 22.2757C21.3709 22.2646 21.3799 22.2554 21.3909 22.2489L23.6997 20.8793C23.7107 20.8729 23.7198 20.8638 23.7263 20.8529C23.7327 20.842 23.7362 20.8295 23.7365 20.8169V10.9593C23.7365 10.9463 23.7331 10.9335 23.7267 10.9223C23.7202 10.9111 23.7109 10.9017 23.6997 10.8953L15.3045 6.11606C15.2933 6.1096 15.2806 6.1062 15.2677 6.1062C15.2548 6.1062 15.2421 6.1096 15.2309 6.11606L6.84688 11.0441C6.83588 11.0504 6.82672 11.0595 6.82027 11.0704C6.81382 11.0813 6.81031 11.0938 6.81008 11.1065Z" fill="#162E46"/>
<path d="M21.8105 11.9656C21.6313 12.2451 21.434 12.4382 21.2185 12.5448L15.3769 9.15603C15.341 9.13511 15.3 9.12423 15.2581 9.12451C15.2162 9.1248 15.1749 9.13623 15.1385 9.15763L9.28088 12.5544C9.09102 12.3624 8.83235 12.196 8.50488 12.0552L15.1497 8.22483C15.2286 8.17896 15.3075 8.17896 15.3865 8.22483L21.8105 11.9656Z" fill="#EF942B"/>
<path d="M13.8902 12.636L11.8758 13.8072C11.8612 13.8156 11.849 13.8277 11.8406 13.8423C11.8322 13.8569 11.8278 13.8735 11.8278 13.8904L11.8358 16.2088C11.836 16.2254 11.8406 16.2416 11.849 16.2559C11.8574 16.2702 11.8694 16.2821 11.8838 16.2904L13.0214 16.9496C13.0357 16.9579 13.0477 16.9697 13.0561 16.984C13.0645 16.9983 13.0691 17.0146 13.0694 17.0312L13.0838 17.8152C13.0844 17.8323 13.0803 17.8493 13.0722 17.8643C13.064 17.8794 13.0519 17.892 13.0372 17.9008C13.0225 17.9096 13.0057 17.9143 12.9886 17.9145C12.9715 17.9146 12.9546 17.9101 12.9398 17.9016L11.0294 16.812C11.0148 16.8035 11.0026 16.7914 10.9942 16.7768C10.9858 16.7622 10.9814 16.7456 10.9814 16.7288L10.9766 13.3784C10.9768 13.3618 10.9814 13.3455 10.9898 13.3312C10.9982 13.3169 11.0102 13.3051 11.0246 13.2968L13.887 11.6248C13.9014 11.6161 13.9179 11.6114 13.9347 11.6111C13.9516 11.6108 13.9682 11.615 13.983 11.6232L16.879 13.2872C16.8936 13.2956 16.9057 13.3077 16.9141 13.3223C16.9225 13.3369 16.927 13.3535 16.927 13.3704L16.9382 16.6984C16.9379 16.715 16.9333 16.7312 16.9249 16.7455C16.9165 16.7598 16.9045 16.7717 16.8902 16.78L14.967 17.9176C14.9523 17.9264 14.9356 17.9312 14.9185 17.9314C14.9014 17.9316 14.8846 17.9272 14.8697 17.9187C14.8549 17.9102 14.8426 17.8979 14.8341 17.8831C14.8256 17.8683 14.8212 17.8515 14.8214 17.8344V17.0376C14.8214 17.0207 14.8258 17.0041 14.8342 16.9895C14.8426 16.9749 14.8548 16.9628 14.8694 16.9544L16.0198 16.2872C16.0344 16.2787 16.0465 16.2666 16.0549 16.252C16.0633 16.2374 16.0678 16.2208 16.0678 16.204L16.063 13.8824C16.063 13.8655 16.0585 13.8489 16.0501 13.8343C16.0417 13.8197 16.0296 13.8076 16.015 13.7992L13.9862 12.636C13.9716 12.6275 13.955 12.6231 13.9382 12.6231C13.9213 12.6231 13.9048 12.6275 13.8902 12.636Z" fill="#E66A2C"/>
<path d="M21.81 11.9656C21.9583 12.0413 22.0324 12.1176 22.0324 12.1944C22.0313 14.765 22.0292 17.285 22.026 19.7544C22.026 19.8064 22.0122 19.8575 21.9861 19.9024C21.96 19.9474 21.9224 19.9847 21.8772 20.0104L15.3444 23.788C15.3143 23.8055 15.28 23.8148 15.2452 23.8148C15.2103 23.8148 15.1761 23.8055 15.146 23.788L8.59558 19.9816C8.56405 19.9636 8.53792 19.9376 8.5199 19.9064C8.50189 19.8751 8.49267 19.8398 8.49318 19.804L8.50438 12.0552C8.83185 12.196 9.09052 12.3624 9.28038 12.5544L9.26118 19.2632C9.26118 19.3805 9.31185 19.4685 9.41318 19.5272L15.106 22.8328C15.1482 22.8575 15.1964 22.8705 15.2456 22.8705C15.2947 22.8705 15.3432 22.8575 15.386 22.8328L21.1444 19.5096C21.1659 19.4968 21.1837 19.4787 21.196 19.4571C21.2084 19.4355 21.2148 19.4111 21.2148 19.3864L21.218 12.5448C21.4335 12.4381 21.6308 12.245 21.81 11.9656Z" fill="#D55E2D"/>
<path d="M18.6178 18.0937L18.6146 15.7913C18.6144 15.7714 18.609 15.7519 18.5989 15.7348C18.5888 15.7176 18.5743 15.7035 18.557 15.6937L17.3666 15.0185C17.3493 15.0086 17.3349 14.9945 17.3248 14.9773C17.3147 14.9602 17.3093 14.9407 17.309 14.9209L17.2962 14.1769C17.2959 14.1568 17.3008 14.1371 17.3106 14.1196C17.3204 14.1021 17.3346 14.0875 17.3518 14.0772C17.369 14.067 17.3886 14.0615 17.4087 14.0613C17.4287 14.0611 17.4484 14.0662 17.4658 14.0761L19.4114 15.1881C19.4287 15.1979 19.4432 15.212 19.4533 15.2292C19.4634 15.2463 19.4688 15.2658 19.469 15.2857L19.4834 18.5977C19.4837 18.6177 19.4786 18.6374 19.4688 18.6548C19.4589 18.6722 19.4447 18.6867 19.4274 18.6969L16.565 20.3673C16.5479 20.3775 16.5284 20.383 16.5085 20.3833C16.4885 20.3836 16.4688 20.3786 16.4514 20.3689L13.5858 18.7273C13.5685 18.7174 13.5541 18.7033 13.544 18.6861C13.5339 18.669 13.5285 18.6495 13.5282 18.6297L13.5234 15.2921C13.5237 15.2722 13.5291 15.2527 13.5392 15.2356C13.5493 15.2184 13.5637 15.2043 13.581 15.1945L15.5298 14.0793C15.5473 14.0694 15.567 14.0643 15.587 14.0645C15.6071 14.0647 15.6267 14.0702 15.6439 14.0804C15.6611 14.0907 15.6753 14.1053 15.6851 14.1228C15.6948 14.1403 15.6998 14.16 15.6994 14.1801L15.6914 14.8937C15.6913 14.913 15.6862 14.9319 15.6767 14.9487C15.6672 14.9655 15.6535 14.9796 15.637 14.9897L14.4402 15.7049C14.4232 15.7149 14.4091 15.7291 14.3993 15.7462C14.3895 15.7633 14.3843 15.7827 14.3842 15.8025V18.1065C14.3845 18.1263 14.3899 18.1458 14.4 18.1629C14.4101 18.1801 14.4245 18.1942 14.4418 18.2041L16.4498 19.3577C16.4672 19.3674 16.4869 19.3724 16.5069 19.3721C16.5268 19.3718 16.5463 19.3663 16.5634 19.3561L18.5618 18.1929C18.5791 18.1827 18.5933 18.1682 18.6032 18.1508C18.613 18.1334 18.6181 18.1137 18.6178 18.0937Z" fill="#EF942B"/>
</svg>
