<svg width="33" height="32" viewBox="0 0 33 32" fill="none" xmlns="http://www.w3.org/2000/svg">
<g clip-path="url(#clip0_310_15)">
<path d="M15.5584 32C12.8425 32 10.238 30.9211 8.31759 29.0008C6.39721 27.0804 5.31836 24.4758 5.31836 21.76C5.31836 19.0442 6.39721 16.4396 8.31759 14.5192C10.238 12.5989 12.8425 11.52 15.5584 11.52V32ZM15.5584 0H5.31836V10.24H15.5584V0ZM21.9584 10.24C23.3163 10.24 24.6186 9.70057 25.5787 8.74039C26.5389 7.7802 27.0784 6.47791 27.0784 5.12C27.0784 3.76209 26.5389 2.4598 25.5787 1.49961C24.6186 0.539427 23.3163 0 21.9584 0C20.6005 0 19.2982 0.539427 18.338 1.49961C17.3778 2.4598 16.8384 3.76209 16.8384 5.12C16.8384 6.47791 17.3778 7.7802 18.338 8.74039C19.2982 9.70057 20.6005 10.24 21.9584 10.24Z" fill="black"/>
</g>
<defs>
<clipPath id="clip0_310_15">
<rect width="32" height="32" fill="white" transform="translate(0.199219)"/>
</clipPath>
</defs>
</svg>
