<svg width="29" height="32" viewBox="0 0 29 32" fill="none" xmlns="http://www.w3.org/2000/svg">
<g clip-path="url(#clip0_310_83)">
<path d="M28.1926 16.0029C28.1926 14.1425 25.8628 12.3794 22.2909 11.2861C23.1152 7.64545 22.7488 4.74897 21.1346 3.82164C20.7625 3.60412 20.3274 3.50109 19.8523 3.50109V4.77759C20.1156 4.77759 20.3274 4.82911 20.5049 4.92643C21.2834 5.37292 21.6211 7.07302 21.3578 9.25969C21.2948 9.79777 21.1918 10.3645 21.0659 10.9426C19.9439 10.6679 18.7189 10.4561 17.431 10.3187C16.6582 9.25969 15.8568 8.29801 15.0497 7.45655C16.9158 5.7221 18.6674 4.77187 19.8581 4.77187V3.49536C18.2839 3.49536 16.2232 4.61732 14.1395 6.56356C12.0559 4.62876 9.99517 3.51826 8.421 3.51826V4.79477C9.60592 4.79477 11.3633 5.73927 13.2294 7.46227C12.428 8.30374 11.6266 9.25969 10.8653 10.3187C9.57157 10.4561 8.34658 10.6679 7.22463 10.9483C7.09297 10.3759 6.99566 9.82066 6.92696 9.28831C6.65792 7.10164 6.98993 5.40154 7.76271 4.94932C7.93443 4.84629 8.15768 4.80049 8.421 4.80049V3.52398C7.94016 3.52398 7.50511 3.62702 7.12731 3.84454C5.5188 4.77187 5.15817 7.66262 5.98819 11.2918C2.4277 12.3909 0.109375 14.1482 0.109375 16.0029C0.109375 17.8632 2.43915 19.6263 6.01108 20.7196C5.18679 24.3603 5.55314 27.2567 7.16738 28.1841C7.53946 28.4016 7.9745 28.5046 8.45534 28.5046C10.0295 28.5046 12.0902 27.3827 14.1739 25.4364C16.2575 27.3712 18.3182 28.4817 19.8924 28.4817C20.3732 28.4817 20.8083 28.3787 21.1861 28.1612C22.7946 27.2338 23.1552 24.3431 22.3252 20.7139C25.8743 19.6206 28.1926 17.8575 28.1926 16.0029ZM20.7396 12.1848C20.5278 12.9232 20.2645 13.6845 19.9668 14.4459C19.7321 13.9879 19.486 13.53 19.2169 13.072C18.9536 12.6141 18.6731 12.1676 18.3927 11.7326C19.2055 11.8528 19.9897 12.0016 20.7396 12.1848ZM18.1179 18.2811C17.6714 19.0539 17.2135 19.7866 16.7383 20.4678C15.8854 20.5422 15.0211 20.5823 14.151 20.5823C13.2866 20.5823 12.4223 20.5422 11.5751 20.4735C11.0999 19.7923 10.6363 19.0653 10.1898 18.2983C9.75475 17.5484 9.35977 16.7871 8.99915 16.02C9.35405 15.253 9.75475 14.4859 10.1841 13.7361C10.6306 12.9633 11.0885 12.2306 11.5636 11.5494C12.4165 11.475 13.2809 11.4349 14.151 11.4349C15.0153 11.4349 15.8797 11.475 16.7269 11.5437C17.202 12.2249 17.6657 12.9518 18.1122 13.7189C18.5472 14.4688 18.9422 15.2301 19.3028 15.9971C18.9422 16.7642 18.5472 17.5312 18.1179 18.2811ZM19.9668 17.537C20.2759 18.304 20.5392 19.0711 20.7568 19.8152C20.0069 19.9984 19.2169 20.1529 18.3984 20.2732C18.6789 19.8324 18.9594 19.3802 19.2227 18.9165C19.486 18.4586 19.7321 17.9949 19.9668 17.537ZM14.1624 23.6447C13.6301 23.0952 13.0977 22.4827 12.5711 21.813C13.0863 21.8359 13.6129 21.8531 14.1453 21.8531C14.6833 21.8531 15.2157 21.8416 15.7366 21.813C15.2214 22.4827 14.6891 23.0952 14.1624 23.6447ZM9.90358 20.2732C9.09073 20.1529 8.30651 20.0041 7.55663 19.8209C7.76843 19.0825 8.03175 18.3212 8.32941 17.5599C8.5641 18.0178 8.81024 18.4757 9.07928 18.9337C9.34832 19.3916 9.62309 19.8381 9.90358 20.2732ZM14.1338 8.36098C14.6662 8.91051 15.1985 9.523 15.7251 10.1927C15.21 10.1698 14.6833 10.1527 14.151 10.1527C13.6129 10.1527 13.0805 10.1641 12.5596 10.1927C13.0748 9.523 13.6072 8.91051 14.1338 8.36098ZM9.89785 11.7326C9.61737 12.1733 9.33688 12.6255 9.07356 13.0892C8.81024 13.5472 8.5641 14.0051 8.32941 14.463C8.0203 13.696 7.75698 12.9289 7.53946 12.1848C8.28934 12.0073 9.07929 11.8528 9.89785 11.7326ZM4.7174 18.8993C2.69102 18.035 1.38016 16.9016 1.38016 16.0029C1.38016 15.1042 2.69102 13.965 4.7174 13.1064C5.20969 12.8946 5.74777 12.7057 6.30302 12.5282C6.6293 13.6502 7.05862 14.8179 7.59098 16.0143C7.06435 17.205 6.64075 18.367 6.32019 19.4832C5.75349 19.3058 5.21541 19.1111 4.7174 18.8993ZM7.79705 27.0793C7.01855 26.6328 6.68082 24.9327 6.94414 22.746C7.0071 22.208 7.11014 21.6413 7.23608 21.0631C8.35803 21.3379 9.58302 21.5497 10.871 21.687C11.6438 22.746 12.4451 23.7077 13.2523 24.5492C11.3862 26.2836 9.63454 27.2339 8.44389 27.2339C8.1863 27.2281 7.96878 27.1766 7.79705 27.0793ZM21.375 22.7174C21.644 24.9041 21.312 26.6042 20.5392 27.0564C20.3675 27.1594 20.1443 27.2052 19.881 27.2052C18.696 27.2052 16.9387 26.2607 15.0726 24.5377C15.874 23.6963 16.6754 22.7403 17.4367 21.6813C18.7304 21.5439 19.9554 21.3321 21.0773 21.0517C21.209 21.6298 21.312 22.1851 21.375 22.7174ZM23.5788 18.8993C23.0865 19.1111 22.5485 19.3 21.9932 19.4775C21.6669 18.3555 21.2376 17.1878 20.7052 15.9914C21.2319 14.8008 21.6555 13.6387 21.976 12.5225C22.5427 12.7 23.0808 12.8946 23.5845 13.1064C25.6109 13.9707 26.9218 15.1042 26.9218 16.0029C26.9161 16.9016 25.6052 18.0407 23.5788 18.8993Z" fill="#61DAFB"/>
<path d="M14.1453 18.6189C15.59 18.6189 16.7613 17.4477 16.7613 16.0029C16.7613 14.5582 15.59 13.387 14.1453 13.387C12.7005 13.387 11.5293 14.5582 11.5293 16.0029C11.5293 17.4477 12.7005 18.6189 14.1453 18.6189Z" fill="#61DAFB"/>
</g>
<defs>
<clipPath id="clip0_310_83">
<rect width="28.0832" height="32" fill="white" transform="translate(0.109375)"/>
</clipPath>
</defs>
</svg>
