<svg width="34" height="32" viewBox="0 0 34 32" fill="none" xmlns="http://www.w3.org/2000/svg">
<g clip-path="url(#clip0_310_57)">
<path d="M23.5952 22.2595C24.8341 22.1313 25.7739 21.0633 25.7312 19.7816C25.6886 18.5 24.6205 17.4746 23.3389 17.4746H23.2535C21.929 17.5173 20.9038 18.6281 20.9465 19.9524C20.9893 20.5933 21.2455 21.1487 21.63 21.5332C20.1775 24.3956 17.9561 26.489 14.6239 28.2406C12.3597 29.4368 10.0101 29.8641 7.66049 29.5651C5.73802 29.3087 4.24279 28.4543 3.3028 27.0443C1.93582 24.951 1.8077 22.6866 2.96119 20.4224C3.77293 18.799 5.0544 17.6027 5.86614 17.0046C5.69527 16.4492 5.43889 15.5094 5.31077 14.8259C-0.883757 19.3117 -0.24289 25.3782 1.63683 28.2406C3.04656 30.3768 5.90889 31.7012 9.07021 31.7012C9.92457 31.7012 10.7789 31.6157 11.6334 31.4022C17.1017 30.334 21.2456 27.0871 23.5952 22.2595ZM31.1141 16.962C27.8673 13.1597 23.0826 11.0663 17.6143 11.0663H16.9308C16.5463 10.2973 15.7346 9.78458 14.8375 9.78458H14.752C13.4278 9.82733 12.4025 10.9381 12.4452 12.2626C12.4879 13.5442 13.5559 14.5695 14.8375 14.5695H14.9229C15.8627 14.5268 16.6745 13.9286 17.0162 13.1169H17.7852C21.032 13.1169 24.1078 14.0568 26.8848 15.8939C29.0208 17.3037 30.5588 19.1408 31.4131 21.3623C32.1393 23.1566 32.0966 24.9082 31.3276 26.4036C30.1315 28.6678 28.1237 29.9068 25.475 29.9068C23.7661 29.9068 22.1428 29.3941 21.2883 29.0096C20.8184 29.4368 19.9639 30.1203 19.3658 30.5477C21.2029 31.402 23.0826 31.872 24.8768 31.872C28.978 31.872 32.0112 29.6077 33.1647 27.3435C34.4036 24.8655 34.3181 20.5933 31.1141 16.962ZM9.41196 22.9856C9.45471 24.2674 10.5227 25.2926 11.8043 25.2926H11.8898C13.2141 25.25 14.2394 24.1391 14.1966 22.8148C14.154 21.533 13.0859 20.5078 11.8043 20.5078H11.7189C11.6334 20.5078 11.5052 20.5078 11.4199 20.5504C9.66833 17.6453 8.94209 14.484 9.19847 11.0662C9.36921 8.50285 10.2237 6.28125 11.7189 4.44415C12.9578 2.86342 15.3501 2.09443 16.9736 2.05181C21.5019 1.96631 23.4242 7.60561 23.5525 9.86995C24.1078 9.99807 25.0477 10.2972 25.6886 10.5108C25.1758 3.58992 20.9038 0.0012207 16.8027 0.0012207C12.9578 0.0012207 9.41196 2.77818 8.0021 6.8795C6.03701 12.3479 7.31861 17.6027 9.71095 21.7468C9.49746 22.0458 9.36921 22.5156 9.41196 22.9856Z" fill="#764ABC"/>
</g>
<defs>
<clipPath id="clip0_310_57">
<rect width="33.5711" height="32" fill="white" transform="translate(0.333984)"/>
</clipPath>
</defs>
</svg>
