<svg width="33" height="32" viewBox="0 0 33 32" fill="none" xmlns="http://www.w3.org/2000/svg">
<g clip-path="url(#clip0_310_100)">
<path d="M5.05675 29.4244L4.06756 3.06691C4.03489 2.19642 4.70234 1.4587 5.57174 1.40436L27.9906 0.003181C28.8756 -0.0521281 29.6378 0.620425 29.6931 1.50537C29.6952 1.53871 29.6962 1.57211 29.6962 1.60552V30.3266C29.6962 31.2133 28.9774 31.9321 28.0908 31.9321C28.0667 31.9321 28.0427 31.9316 28.0187 31.9305L6.58905 30.968C5.75444 30.9305 5.08808 30.2592 5.05675 29.4244Z" fill="#FF4785"/>
<mask id="mask0_310_100" style="mask-type:luminance" maskUnits="userSpaceOnUse" x="4" y="0" width="26" height="32">
<path d="M5.05675 29.4244L4.06756 3.06691C4.03489 2.19642 4.70234 1.4587 5.57174 1.40436L27.9906 0.003181C28.8756 -0.0521281 29.6378 0.620425 29.6931 1.50537C29.6952 1.53871 29.6962 1.57211 29.6962 1.60552V30.3266C29.6962 31.2133 28.9774 31.9321 28.0908 31.9321C28.0667 31.9321 28.0427 31.9316 28.0187 31.9305L6.58905 30.968C5.75444 30.9305 5.08808 30.2592 5.05675 29.4244Z" fill="white"/>
</mask>
<g mask="url(#mask0_310_100)">
<path d="M22.9913 3.92496L23.1444 0.241905L26.2232 0L26.3559 3.79821C26.3605 3.9304 26.2571 4.0413 26.1249 4.04591C26.0683 4.04789 26.0128 4.02974 25.9683 3.9947L24.781 3.0594L23.3753 4.12572C23.27 4.20565 23.1197 4.18503 23.0398 4.07965C23.0061 4.03529 22.989 3.98059 22.9913 3.92496ZM19.0538 12.0356C19.0538 12.6603 23.2612 12.3609 23.826 11.9221C23.826 7.66864 21.5437 5.43349 17.3643 5.43349C13.185 5.43349 10.8434 7.70342 10.8434 11.1083C10.8434 17.0385 18.8464 17.152 18.8464 20.3866C18.8464 21.2946 18.4017 21.8337 17.4236 21.8337C16.1491 21.8337 15.6452 21.1828 15.7044 18.9696C15.7044 18.4895 10.8434 18.3398 10.6952 18.9696C10.3178 24.3329 13.6592 25.8799 17.4829 25.8799C21.188 25.8799 24.0927 23.905 24.0927 20.3299C24.0927 13.9741 15.9712 14.1443 15.9712 10.9948C15.9712 9.71798 16.9197 9.54773 17.4829 9.54773C18.0757 9.54773 19.1428 9.65222 19.0538 12.0356Z" fill="white"/>
</g>
</g>
<defs>
<clipPath id="clip0_310_100">
<rect width="32" height="32" fill="white" transform="translate(0.90625)"/>
</clipPath>
</defs>
</svg>
