<svg width="54" height="32" viewBox="0 0 54 32" fill="none" xmlns="http://www.w3.org/2000/svg">
<g clip-path="url(#clip0_310_87)">
<path d="M26.8829 0C19.7696 0 15.3241 3.55563 13.5456 10.6662C16.2133 7.11059 19.3253 5.77773 22.8816 6.66631C24.9109 7.1733 26.3612 8.64558 27.9669 10.2746C30.5819 12.9283 33.6086 15.9997 40.2202 15.9997C47.3327 15.9997 51.779 12.444 53.5568 5.33278C50.8897 8.88841 47.7777 10.2219 44.2207 9.33336C42.1921 8.82637 40.7418 7.35408 39.1361 5.72503C36.5211 3.07132 33.4938 0 26.8829 0ZM13.5456 15.9997C6.433 15.9997 1.9868 19.5553 0.208984 26.6666C2.87604 23.1109 5.98805 21.7774 9.54501 22.6666C11.5737 23.1743 13.0239 24.6459 14.6296 26.2743C17.2447 28.928 20.2719 32 26.8829 32C33.9961 32 38.4417 28.4444 40.2202 21.3331C37.5524 24.8887 34.4404 26.2223 30.8841 25.333C28.8548 24.8267 27.4045 23.3537 25.7988 21.7254C23.1838 19.0716 20.1572 15.9997 13.5456 15.9997Z" fill="#06B6D4"/>
</g>
<defs>
<clipPath id="clip0_310_87">
<rect width="53.3689" height="32" fill="white" transform="translate(0.199219)"/>
</clipPath>
</defs>
</svg>
