<svg width="32" height="32" viewBox="0 0 32 32" fill="none" xmlns="http://www.w3.org/2000/svg">
<g clip-path="url(#clip0_231_22)">
<rect width="32" height="32" fill="black"/>
<rect y="21" width="32" height="11" fill="white"/>
<path d="M0 19.5V31.9788H6.42438C6.32337 31.8935 6.20216 31.8081 6.12135 31.7015C5.29306 30.8482 5.27286 29.8457 5.25265 28.9284V23.6809H7.91935V29.2057C7.91935 29.5897 7.91935 29.9737 8.22238 30.2723C8.44461 30.5069 8.74764 30.6136 9.07087 30.5923C9.37391 30.6136 9.67694 30.4856 9.91936 30.2723C10.2224 29.9523 10.2426 29.5684 10.2426 29.2057V23.6596H12.9295V28.3738C12.9295 29.3977 12.9295 30.6989 11.9396 31.7015C11.8386 31.8081 11.7376 31.8935 11.6366 31.9788H15.6366C14.4649 31.0829 13.8992 29.5897 13.8992 28.1392C13.8992 25.7501 15.4144 23.3396 18.2629 23.3396C19.5154 23.3183 20.7478 23.8302 21.6367 24.7688C21.9195 25.0675 22.1619 25.4301 22.3437 25.8141L20.1215 26.9873C19.8993 26.454 19.4952 25.5154 18.3841 25.5154C17.9598 25.5154 17.5558 25.6861 17.2528 25.9847C16.6265 26.6246 16.6265 27.6272 16.6265 27.9898C16.6265 29.3124 17.0912 30.5496 18.4043 30.5496C19.6366 30.5496 20.0205 29.3977 20.1013 29.0991L22.3639 30.251C22.1619 30.7202 21.8791 31.1469 21.5356 31.5095C21.3538 31.6802 21.172 31.8508 20.97 32.0001H23.4144V23.6596H26.0609V30.2083H29.5155V31.9788H32.0004V19.5H0ZM1.83848 24.9181H1.85868V24.8968H1.87888V24.8755H1.89909C1.89909 24.8755 1.91929 24.8755 1.91929 24.8541C1.91929 24.7048 1.93949 24.5768 2.0203 24.4489C2.08091 24.3422 2.18192 24.2569 2.28293 24.2142C2.28293 24.1929 2.32333 24.1715 2.34353 24.1715C2.36374 24.1715 2.36374 24.1715 2.36374 24.1502C2.36374 24.1502 2.36374 24.1289 2.34353 24.1289V24.0649H2.36374V24.0436C2.36374 24.0436 2.36374 24.0436 2.36374 24.0222V23.8516V23.8089C2.36374 23.8089 2.36374 23.8089 2.36374 23.7876V23.7663H2.38394C2.40414 23.7449 2.42434 23.7236 2.44454 23.7023C2.44454 23.7023 2.44455 23.6809 2.46475 23.6809L2.48495 23.7023C2.50515 23.7236 2.52535 23.7449 2.54556 23.7663H2.56576V23.7876H2.62637V23.8089V23.8302V24.0009C2.62637 24.0009 2.62637 24.0009 2.62637 24.0222V24.0649H2.64657V24.0862C2.64657 24.0862 2.62637 24.0862 2.62637 24.1076C2.62637 24.1076 2.62637 24.1076 2.64657 24.1289C2.66677 24.1502 2.70718 24.1502 2.70718 24.1715C2.80819 24.2142 2.9092 24.2995 2.9698 24.4062C3.05061 24.5342 3.07082 24.6622 3.07082 24.8115V24.8328H3.09102V24.8541H3.11122V24.8755H3.13142V24.8968C3.11122 24.8968 3.11122 24.9181 3.11122 24.9181C3.11122 24.9395 3.09102 24.9395 3.09102 24.9395V25.1101C3.09102 25.1315 3.11122 25.1315 3.11122 25.1528V25.2381L2.50515 25.0888L1.85868 25.2381V25.1528C1.87888 25.1528 1.87888 25.1315 1.87888 25.1101V25.0035C1.87888 25.0035 1.85868 25.0035 1.85868 24.9821C1.85868 24.9608 1.83848 24.9608 1.83848 24.9608C1.85868 24.9395 1.83848 24.9181 1.83848 24.9181ZM3.95971 27.2646H1.03039V27.0726H1.1314V26.8593H1.23241V26.774V26.7526H1.25262V26.7313L1.27282 26.71V25.8994V25.878V25.8567C1.25262 25.8354 1.25262 25.8141 1.25262 25.8141V25.7287H1.19201L1.17181 25.6007C1.17181 25.5794 1.1516 25.5794 1.1314 25.5794L1.091 25.5154L2.48495 25.1954L3.8789 25.5154L3.8587 25.5794C3.8385 25.5794 3.8385 25.5794 3.8183 25.6007L3.79809 25.7287H3.73749V25.7714H3.71729C3.71729 25.7927 3.71729 25.8141 3.69708 25.8141V25.8354V25.8567V26.6886V26.71V26.7313H3.71729V26.7526V26.838H3.8183V27.0299H3.91931V27.2219L3.95971 27.2646Z" fill="black"/>
</g>
<defs>
<clipPath id="clip0_231_22">
<rect width="32" height="32" fill="white"/>
</clipPath>
</defs>
</svg>
