<svg width="32" height="32" viewBox="0 0 32 32" fill="none" xmlns="http://www.w3.org/2000/svg">
  <g clip-path="url(#clip0_233_36)">
    <rect width="20" height="20" rx="3" fill="black" />
    <path d="M0 11H20V17C20 18.6569 18.6569 20 17 20H3C1.34315 20 0 18.6569 0 17V11Z" fill="#FFAA40" />
    <rect x="1" y="6" width="18" height="5" fill="#FFAA40" />
    <path
      d="M0.833008 5.87964V11H4.51366C4.45579 10.9499 4.38635 10.8779 4.34005 10.8154C3.86551 10.3148 3.85393 9.72663 3.84236 9.18853V6.11005H5.37016V9.35121C5.37016 9.57646 5.37016 9.80172 5.54377 9.97692C5.67109 10.1146 5.8447 10.1771 6.02989 10.1646C6.20351 10.1771 6.37712 10.1021 6.51601 9.97692C6.68962 9.7892 6.7012 9.56395 6.7012 9.35121V6.09753H8.24057V8.86316C8.24057 9.46384 8.24057 10.2272 7.67343 10.8154C7.61556 10.8779 7.55769 10.9499 7.49982 11H9.79152C9.12022 10.4744 8.79614 9.57646 8.79614 8.7255C8.79614 7.32392 9.66421 5.90982 11.2962 5.90982C12.0138 5.89731 12.7198 6.19765 13.2291 6.74827C13.3911 6.92347 13.53 7.13621 13.6342 7.36146L12.361 8.04974C12.2337 7.73689 12.0022 7.18626 11.3656 7.18626C11.1226 7.18626 10.8911 7.28638 10.7175 7.46157C10.3587 7.837 10.3587 8.42516 10.3587 8.6379C10.3587 9.41378 10.6249 10.1396 11.3772 10.1396C12.0832 10.1396 12.3031 9.46384 12.3494 9.28864L13.6457 9.9644C13.53 10.2397 13.368 10.49 13.1712 10.7027C13.067 10.8029 12.9629 10.9124 12.8471 11H14.2476V6.09753H15.7638V9.93937H17.743V11H19.1667V5.87964H9.99984H0.833008ZM1.88631 6.83587H1.89788V6.82335H1.90946V6.81084H1.92103C1.92103 6.81084 1.93261 6.81084 1.93261 6.79833C1.93261 6.71073 1.94418 6.63564 1.99048 6.56056C2.0252 6.49799 2.08307 6.44793 2.14094 6.4229C2.14094 6.41039 2.16409 6.39787 2.17567 6.39787C2.18724 6.39787 2.18724 6.39787 2.18724 6.38536C2.18724 6.38536 2.18724 6.37284 2.17567 6.37284V6.3353H2.18724V6.32279C2.18724 6.32279 2.18724 6.32279 2.18724 6.31027V6.21016V6.18513C2.18724 6.18513 2.18724 6.18513 2.18724 6.17262V6.1601H2.19881C2.21039 6.14759 2.22196 6.13508 2.23354 6.12256C2.23354 6.12256 2.23354 6.11005 2.24511 6.11005L2.25669 6.12256C2.26826 6.13508 2.27983 6.14759 2.29141 6.1601H2.30298V6.17262H2.3377V6.18513V6.19765V6.29776C2.3377 6.29776 2.3377 6.29776 2.3377 6.31027V6.3353H2.34928V6.34782C2.34928 6.34782 2.3377 6.34782 2.3377 6.36033C2.3377 6.36033 2.3377 6.36033 2.34928 6.37284C2.36085 6.38536 2.384 6.38536 2.384 6.39787C2.44187 6.4229 2.49974 6.47296 2.53447 6.53553C2.58076 6.61061 2.59234 6.6857 2.59234 6.7733V6.78581H2.60391V6.79833H2.61549V6.81084H2.62706V6.82335C2.61549 6.82335 2.61549 6.83587 2.61549 6.83587C2.61549 6.84838 2.60391 6.84838 2.60391 6.84838V6.9485C2.60391 6.96101 2.61549 6.96101 2.61549 6.97352V7.02358L2.26826 6.93598L1.89788 7.02358V6.97352C1.90946 6.97352 1.90946 6.96101 1.90946 6.9485V6.88592C1.90946 6.88592 1.89788 6.88592 1.89788 6.87341C1.89788 6.8609 1.88631 6.8609 1.88631 6.8609C1.89788 6.84838 1.88631 6.83587 1.88631 6.83587ZM3.10161 8.21242H1.42334V8.0998H1.48121V7.97465H1.53908V7.9246V7.91208H1.55066V7.89957L1.56223 7.88706V7.41152V7.399V7.38649C1.55066 7.37398 1.55066 7.36146 1.55066 7.36146V7.3114H1.51593L1.50436 7.23632C1.50436 7.22381 1.49278 7.22381 1.48121 7.22381L1.45806 7.18626L2.25669 6.99855L3.05531 7.18626L3.04373 7.22381C3.03216 7.22381 3.03216 7.22381 3.02059 7.23632L3.00901 7.3114H2.97429V7.33643H2.96271C2.96271 7.34895 2.96272 7.36146 2.95114 7.36146V7.37398V7.38649V7.87454V7.88706V7.89957H2.96271V7.91208V7.96214H3.02059V8.07477H3.07846V8.18739L3.10161 8.21242Z"
      fill="black" />
    <rect x="10.5" y="10.5" width="21" height="21" rx="3.5" fill="#ED1C2E" stroke="white" />
    <path d="M15.5889 15.6682H16.7275V25.154H18.4176V26.3318H15.5889V15.6682Z" fill="white" />
    <path
      d="M23.5322 15.6691H26.4102V16.8317H24.6709V20.2504H26.2966V21.4944H24.6709V25.1525H26.4102V26.3313H23.5322V15.6691Z"
      fill="white" />
    <path
      d="M19.4096 26.3314V25.1911V25.1648L19.7663 25.1635C20.2347 25.1611 21.0273 24.8347 21.1441 24.0969C21.2574 23.3824 21.1739 22.8651 20.2549 21.2955L20.243 21.2692C19.6033 20.2263 18.9968 19.3155 19.2232 17.8864C19.4692 16.3328 20.684 15.6487 21.7891 15.6692L22.1461 15.6686V16.8089V16.8352L21.7891 16.8366C21.321 16.8392 20.5063 17.1603 20.3893 17.8978C20.2762 18.6125 20.3541 19.0748 21.2492 20.6234L21.2731 20.6633C21.9378 21.7336 22.5365 22.6794 22.3102 24.1086C22.0642 25.6622 20.8715 26.3513 19.7663 26.3311L19.4096 26.3314Z"
      fill="white" />
  </g>
  <defs>
    <clipPath id="clip0_233_36">
      <rect width="32" height="32" fill="white" />
    </clipPath>
  </defs>
</svg>