<svg width="33" height="32" viewBox="0 0 33 32" fill="none" xmlns="http://www.w3.org/2000/svg">
<g clip-path="url(#clip0_310_118)">
<mask id="mask0_310_118" style="mask-type:alpha" maskUnits="userSpaceOnUse" x="0" y="0" width="33" height="32">
<path fill-rule="evenodd" clip-rule="evenodd" d="M23.5981 31.7815C24.1021 31.9778 24.6767 31.9653 25.1854 31.7205L31.7737 28.5503C32.466 28.2172 32.9062 27.5165 32.9062 26.7479V5.25226C32.9062 4.48362 32.466 3.78298 31.7737 3.44986L25.1854 0.279602C24.5178 -0.0416415 23.7365 0.037043 23.1506 0.463024C23.0669 0.523875 22.9871 0.591817 22.9123 0.666691L10.2999 12.1733L4.80615 8.00307C4.29473 7.61488 3.57941 7.64669 3.10444 8.07875L1.34242 9.68157C0.761433 10.21 0.760768 11.1241 1.34098 11.6534L6.10532 16L1.34098 20.3466C0.760768 20.876 0.761433 21.79 1.34242 22.3185L3.10444 23.9213C3.57941 24.3534 4.29473 24.3852 4.80615 23.997L10.2999 19.8268L22.9123 31.3333C23.1118 31.533 23.3461 31.6833 23.5981 31.7815ZM24.9111 8.73565L15.3412 16L24.9111 23.2644V8.73565Z" fill="white"/>
</mask>
<g mask="url(#mask0_310_118)">
<path d="M31.7738 3.45476L25.1804 0.280154C24.4172 -0.0873068 23.5051 0.067696 22.9062 0.666646L1.32171 20.3466C0.741147 20.8759 0.741814 21.79 1.32315 22.3184L3.08624 23.9213C3.56151 24.3533 4.27727 24.3851 4.78898 23.9969L30.7817 4.27835C31.6537 3.61681 32.9062 4.23876 32.9062 5.33332V5.25678C32.9062 4.48846 32.466 3.78808 31.7738 3.45476Z" fill="#0065A9"/>
<g filter="url(#filter0_d_310_118)">
<path d="M31.7738 28.5452L25.1804 31.7198C24.4172 32.0873 23.5051 31.9323 22.9062 31.3333L1.32171 11.6534C0.741147 11.124 0.741814 10.21 1.32315 9.68151L3.08624 8.07869C3.56151 7.64663 4.27727 7.61482 4.78898 8.00301L30.7817 27.7216C31.6537 28.3831 32.9062 27.7612 32.9062 26.6667V26.7432C32.9062 27.5115 32.466 28.2119 31.7738 28.5452Z" fill="#007ACC"/>
</g>
<g filter="url(#filter1_d_310_118)">
<path d="M25.1807 31.7205C24.4173 32.0877 23.5053 31.9324 22.9062 31.3334C23.6443 32.0714 24.9062 31.5487 24.9062 30.5049V1.49512C24.9062 0.451364 23.6443 -0.0713547 22.9062 0.666692C23.5053 0.0676878 24.4173 -0.0875339 25.1807 0.279602L31.773 3.44986C32.4657 3.78298 32.9062 4.48362 32.9062 5.25226V26.7479C32.9062 27.5165 32.4657 28.2172 31.773 28.5503L25.1807 31.7205Z" fill="#1F9CF0"/>
</g>
<g style="mix-blend-mode:overlay" opacity="0.25">
<path fill-rule="evenodd" clip-rule="evenodd" d="M23.5785 31.7815C24.0825 31.9778 24.6572 31.9652 25.1659 31.7205L31.7542 28.5503C32.4465 28.2172 32.8867 27.5166 32.8867 26.7479V5.25228C32.8867 4.4836 32.4465 3.78296 31.7542 3.44984L25.1659 0.279602C24.4983 -0.0416413 23.717 0.0370432 23.131 0.463021C23.0474 0.523876 22.9676 0.591818 22.8928 0.666692L10.2803 12.1733L4.78662 8.00309C4.27522 7.61487 3.55988 7.64671 3.0849 8.07874L1.32289 9.68156C0.741902 10.2101 0.741236 11.1241 1.32145 11.6534L6.08578 16L1.32145 20.3466C0.741236 20.876 0.741902 21.79 1.32289 22.3185L3.0849 23.9213C3.55988 24.3534 4.27522 24.3852 4.78662 23.997L10.2803 19.8268L22.8928 31.3334C23.0923 31.533 23.3266 31.6833 23.5785 31.7815ZM24.8916 8.73567L15.3216 16L24.8916 23.2644V8.73567Z" fill="url(#paint0_linear_310_118)"/>
</g>
</g>
</g>
<defs>
<filter id="filter0_d_310_118" x="-7.44662" y="-0.601406" width="48.6862" height="40.852" filterUnits="userSpaceOnUse" color-interpolation-filters="sRGB">
<feFlood flood-opacity="0" result="BackgroundImageFix"/>
<feColorMatrix in="SourceAlpha" type="matrix" values="0 0 0 0 0 0 0 0 0 0 0 0 0 0 0 0 0 0 127 0" result="hardAlpha"/>
<feOffset/>
<feGaussianBlur stdDeviation="4.16667"/>
<feColorMatrix type="matrix" values="0 0 0 0 0 0 0 0 0 0 0 0 0 0 0 0 0 0 0.25 0"/>
<feBlend mode="overlay" in2="BackgroundImageFix" result="effect1_dropShadow_310_118"/>
<feBlend mode="normal" in="SourceGraphic" in2="effect1_dropShadow_310_118" result="shape"/>
</filter>
<filter id="filter1_d_310_118" x="14.5729" y="-8.25082" width="26.6667" height="48.5016" filterUnits="userSpaceOnUse" color-interpolation-filters="sRGB">
<feFlood flood-opacity="0" result="BackgroundImageFix"/>
<feColorMatrix in="SourceAlpha" type="matrix" values="0 0 0 0 0 0 0 0 0 0 0 0 0 0 0 0 0 0 127 0" result="hardAlpha"/>
<feOffset/>
<feGaussianBlur stdDeviation="4.16667"/>
<feColorMatrix type="matrix" values="0 0 0 0 0 0 0 0 0 0 0 0 0 0 0 0 0 0 0.25 0"/>
<feBlend mode="overlay" in2="BackgroundImageFix" result="effect1_dropShadow_310_118"/>
<feBlend mode="normal" in="SourceGraphic" in2="effect1_dropShadow_310_118" result="shape"/>
</filter>
<linearGradient id="paint0_linear_310_118" x1="16.8867" y1="0.0825193" x2="16.8867" y2="31.9176" gradientUnits="userSpaceOnUse">
<stop stop-color="white"/>
<stop offset="1" stop-color="white" stop-opacity="0"/>
</linearGradient>
<clipPath id="clip0_310_118">
<rect width="32" height="32" fill="white" transform="translate(0.90625)"/>
</clipPath>
</defs>
</svg>
